<svg width="196" height="59" viewBox="0 0 196 59" fill="none" xmlns="http://www.w3.org/2000/svg">
<g clip-path="url(#clip0_722_2476)">
<path d="M194.7 51.5021C194.7 54.571 192.21 57.0567 189.13 57.0567H6.86949C3.79135 57.0567 1.29294 54.571 1.29294 51.5021V7.20634C1.29294 4.13901 3.79147 1.64453 6.86949 1.64453H189.129C192.21 1.64453 194.698 4.13901 194.698 7.20634L194.7 51.5021Z" fill="white"/>
<path d="M189.131 58.3501H6.86964C3.08262 58.3501 0.00012207 55.2798 0.00012207 51.5033V7.20898C0.00012207 3.42957 3.08262 0.35498 6.86964 0.35498H189.129C192.912 0.35498 195.999 3.42957 195.999 7.20898V51.5033C196.001 55.2798 192.915 58.3501 189.131 58.3501Z" fill="#C8CBF5"/>
<path d="M194.7 51.5021C194.7 54.571 192.21 57.0567 189.13 57.0567H6.86949C3.79135 57.0567 1.29294 54.571 1.29294 51.5021V7.20634C1.29294 4.13901 3.79147 1.64453 6.86949 1.64453H189.129C192.21 1.64453 194.698 4.13901 194.698 7.20634L194.7 51.5021Z" fill="black"/>
<path d="M43.765 29.046C43.7229 24.3718 47.5986 22.0977 47.7758 21.9919C45.5808 18.7969 42.1789 18.3604 40.9834 18.3256C38.126 18.0254 35.3544 20.0325 33.8989 20.0325C32.4143 20.0325 30.1728 18.3546 27.7571 18.4039C24.6485 18.4517 21.7404 20.2486 20.1453 23.039C16.8537 28.7284 19.3086 37.0892 22.4624 41.6881C24.0398 43.9418 25.8833 46.4551 28.296 46.3667C30.6566 46.2709 31.5383 44.8656 34.3869 44.8656C37.2093 44.8656 38.0374 46.3667 40.4981 46.3101C43.0316 46.2709 44.6265 44.0477 46.1489 41.7751C47.972 39.195 48.704 36.6513 48.7332 36.5207C48.675 36.5004 43.8144 34.647 43.765 29.046ZM39.1166 15.3003C40.3861 13.7151 41.2549 11.5586 41.0138 9.37012C39.176 9.45133 36.8781 10.6391 35.5546 12.1895C34.3838 13.5556 33.3379 15.7948 33.6081 17.9006C35.6724 18.0544 37.7918 16.8608 39.1166 15.3003Z" fill="white"/>
<path d="M189.13 0.354004H91.5059L129.744 58.3491H189.13C192.913 58.3491 196 55.2789 196 51.498V7.20801C196.001 3.42859 192.914 0.354004 189.13 0.354004Z" fill="url(#paint0_linear_722_2476)"/>
<path d="M77.9557 46.0433H74.6568L72.8497 40.3741H66.5684L64.847 46.0433H61.6354L67.8599 26.743H71.7036L77.9557 46.0433ZM72.3051 37.9957L70.6709 32.956C70.498 32.4411 70.1726 31.2287 69.6961 29.3201H69.6381C69.4463 30.141 69.1398 31.3534 68.72 32.956L67.1134 37.9957H72.3051ZM93.932 38.9137C93.932 41.2805 93.2884 43.1514 91.9998 44.5249C90.8466 45.7474 89.4128 46.3581 87.7029 46.3581C85.8566 46.3581 84.5289 45.701 83.7227 44.3843V51.6864H80.6257V36.7006C80.6257 35.2139 80.5866 33.6898 80.511 32.1264H83.2347L83.4076 34.3323H83.4656C84.4984 32.6703 86.0658 31.8391 88.1692 31.8391C89.8136 31.8391 91.1864 32.4874 92.2845 33.7854C93.3813 35.0864 93.932 36.7948 93.932 38.9137ZM90.7767 39.0268C90.7767 37.6723 90.4717 36.5555 89.8586 35.6752C89.189 34.7601 88.2898 34.3019 87.1626 34.3019C86.3985 34.3019 85.7041 34.5571 85.0838 35.0603C84.4621 35.5679 84.0554 36.2307 83.8652 37.0515C83.7693 37.4344 83.7214 37.7462 83.7214 37.9929V40.3147C83.7214 41.3255 84.0322 42.1798 84.654 42.8789C85.2757 43.575 86.0834 43.9244 87.077 43.9244C88.2436 43.9244 89.1514 43.4735 89.8007 42.5785C90.4513 41.6808 90.7767 40.4974 90.7767 39.0268ZM109.965 38.9137C109.965 41.2805 109.321 43.1514 108.033 44.5249C106.878 45.7474 105.445 46.3581 103.734 46.3581C101.888 46.3581 100.56 45.701 99.754 44.3843V51.6864H96.657V36.7006C96.657 35.2139 96.6178 33.6898 96.5422 32.1264H99.2659L99.4388 34.3323H99.4969C100.528 32.6703 102.096 31.8391 104.2 31.8391C105.843 31.8391 107.216 32.4874 108.317 33.7854C109.413 35.0864 109.965 36.7948 109.965 38.9137ZM106.808 39.0268C106.808 37.6723 106.502 36.5555 105.888 35.6752C105.219 34.7601 104.323 34.3019 103.195 34.3019C102.431 34.3019 101.737 34.5571 101.114 35.0603C100.492 35.5679 100.087 36.2307 99.8964 37.0515C99.8019 37.4344 99.7511 37.7462 99.7511 37.9929V40.3147C99.7511 41.3255 100.063 42.1798 100.682 42.8789C101.304 43.5736 102.112 43.9244 103.108 43.9244C104.276 43.9244 105.184 43.4735 105.832 42.5785C106.483 41.6808 106.808 40.4974 106.808 39.0268ZM127.89 40.6294C127.89 42.2725 127.315 43.6082 126.172 44.6394C124.914 45.7648 123.158 46.329 120.906 46.329C118.826 46.329 117.158 45.9287 115.9 45.1267L116.616 42.5495C117.974 43.353 119.466 43.7533 121.09 43.7533C122.258 43.7533 123.166 43.4893 123.814 42.9658C124.463 42.4408 124.792 41.7388 124.792 40.8629C124.792 40.0784 124.52 39.4213 123.987 38.8863C123.451 38.3526 122.565 37.8551 121.32 37.3983C117.935 36.138 116.241 34.2947 116.241 31.8698C116.241 30.2861 116.84 28.9896 118.034 27.9758C119.228 26.9635 120.812 26.4575 122.781 26.4575C124.54 26.4575 126.006 26.7635 127.17 27.3741L126.393 29.8946C125.297 29.3028 124.061 29.007 122.678 29.007C121.586 29.007 120.729 29.2753 120.116 29.809C119.6 30.2861 119.338 30.8678 119.338 31.558C119.338 32.3195 119.636 32.9519 120.229 33.4478C120.743 33.9046 121.682 34.4021 123.038 34.9358C124.703 35.6059 125.926 36.3861 126.709 37.2824C127.498 38.1784 127.89 39.2966 127.89 40.6294ZM138.156 34.4468H134.742V41.2037C134.742 42.9223 135.344 43.7794 136.549 43.7794C137.103 43.7794 137.562 43.7328 137.925 43.6358L138.011 45.9838C137.401 46.2116 136.597 46.3261 135.602 46.3261C134.379 46.3261 133.423 45.9533 132.733 45.2079C132.046 44.4625 131.7 43.2138 131.7 41.456V34.441H129.667V32.1206H131.7V29.5725L134.742 28.6559V32.1206H138.156V34.4468ZM153.528 38.9703C153.528 41.1093 152.915 42.8656 151.692 44.2391C150.412 45.6531 148.709 46.358 146.587 46.358C144.539 46.358 142.91 45.6807 141.696 44.3276C140.482 42.9714 139.874 41.2631 139.874 39.2023C139.874 37.0456 140.502 35.2793 141.753 33.9059C143.006 32.531 144.694 31.8437 146.817 31.8437C148.862 31.8437 150.505 32.5223 151.748 33.8769C152.937 35.1908 153.528 36.8877 153.528 38.9703ZM150.317 39.0413C150.317 37.7664 150.041 36.6729 149.488 35.7578C148.839 34.6527 147.909 34.1002 146.705 34.1002C145.464 34.1002 144.513 34.6527 143.865 35.7578C143.31 36.6729 143.034 37.7853 143.034 39.0992C143.034 40.3756 143.31 41.4719 143.865 42.3842C144.534 43.4893 145.468 44.0419 146.678 44.0419C147.862 44.0419 148.791 43.4777 149.462 42.3567C150.031 41.4198 150.317 40.319 150.317 39.0413ZM163.599 34.8457C163.292 34.789 162.964 34.76 162.623 34.76C161.533 34.76 160.691 35.1691 160.098 35.9927C159.584 36.7179 159.325 37.6344 159.325 38.741V46.0431H156.228V36.5091C156.228 34.9066 156.198 33.4447 156.138 32.1279H158.836L158.949 34.7904H159.035C159.363 33.8754 159.877 33.1371 160.583 32.5846C161.273 32.0872 162.018 31.8391 162.822 31.8391C163.108 31.8391 163.367 31.8594 163.596 31.8958L163.599 34.8457ZM177.45 38.4264C177.45 38.9804 177.413 39.4473 177.336 39.8288H168.045C168.08 41.2037 168.531 42.2566 169.393 42.9817C170.176 43.6287 171.189 43.9534 172.432 43.9534C173.808 43.9534 175.063 43.7359 176.192 43.2964L176.677 45.4414C175.358 46.0157 173.801 46.3014 172.004 46.3014C169.842 46.3014 168.146 45.6661 166.911 44.3986C165.679 43.1297 165.062 41.4241 165.062 39.2879C165.062 37.1906 165.636 35.4432 166.784 34.0495C167.987 32.5615 169.613 31.8174 171.658 31.8174C173.667 31.8174 175.188 32.5614 176.221 34.0495C177.039 35.2285 177.45 36.6904 177.45 38.4264ZM174.496 37.6244C174.518 36.7064 174.315 35.916 173.895 35.2474C173.359 34.3859 172.534 33.9567 171.429 33.9567C170.416 33.9567 169.591 34.3758 168.963 35.2169C168.448 35.8855 168.141 36.689 168.047 37.6215L174.496 37.6244Z" fill="white"/>
<path d="M70.8118 19.8353H69.1891L68.3015 17.0493H65.2147L64.3678 19.8353H62.7888L65.848 10.3491H67.7364L70.8118 19.8353ZM68.0342 15.8804L67.2309 13.4033C67.1467 13.1495 66.9912 12.5593 66.7516 11.6166H66.7225C66.6237 12.0241 66.4828 12.6158 66.2707 13.4033L65.4819 15.8804H68.0342ZM78.4613 12.9958L75.8668 19.8353H74.3865L71.8765 12.9958H73.5121L74.6829 16.6128C74.8805 17.2176 75.049 17.7948 75.1754 18.343H75.2175C75.3309 17.8513 75.4993 17.2741 75.71 16.6128L76.8663 12.9958H78.4613ZM83.9842 19.8353L83.8709 19.0477H83.8286C83.3638 19.6815 82.6869 19.9904 81.827 19.9904C80.6009 19.9904 79.7264 19.1318 79.7264 17.9774C79.7264 16.2893 81.1921 15.4162 83.7298 15.4162V15.29C83.7298 14.3894 83.2505 13.9384 82.3063 13.9384C81.6292 13.9384 81.0367 14.1081 80.5166 14.446L80.2071 13.4467C80.8419 13.0523 81.6308 12.855 82.5618 12.855C84.3515 12.855 85.255 13.7977 85.255 15.6845V18.2036C85.255 18.894 85.284 19.4291 85.3538 19.8366L83.9842 19.8353ZM83.7721 16.4286C82.0799 16.4286 81.2343 16.8376 81.2343 17.8078C81.2343 18.5257 81.6716 18.8767 82.2773 18.8767C83.0529 18.8767 83.7721 18.2864 83.7721 17.4844V16.4286ZM88.6457 11.869C88.1387 11.869 87.7436 11.4745 87.7436 10.9538C87.7436 10.4332 88.1519 10.0532 88.6747 10.0532C89.1962 10.0532 89.619 10.4332 89.6045 10.9538C89.6045 11.5035 89.2109 11.869 88.6457 11.869ZM89.4359 19.8353H87.9136V12.9958H89.4359V19.8353ZM93.6631 19.8353H92.1407V9.85742H93.6631V19.8353ZM100.133 19.8353L100.02 19.0477H99.9777C99.5129 19.6815 98.8359 19.9904 97.976 19.9904C96.7499 19.9904 95.8755 19.1318 95.8755 17.9774C95.8755 16.2893 97.341 15.4162 99.8788 15.4162V15.29C99.8788 14.3894 99.3994 13.9384 98.4552 13.9384C97.7783 13.9384 97.1856 14.1081 96.6656 14.446L96.3548 13.4453C96.9896 13.0508 97.7784 12.8536 98.7096 12.8536C100.499 12.8536 101.403 13.7962 101.403 15.6831V18.2022C101.403 18.8925 101.433 19.4277 101.5 19.8352H100.133V19.8353ZM99.9211 16.4286C98.2287 16.4286 97.3833 16.8376 97.3833 17.8078C97.3833 18.5257 97.8204 18.8767 98.4262 18.8767C99.2019 18.8767 99.9211 18.2864 99.9211 17.4844V16.4286ZM107.571 19.9905C106.599 19.9905 105.881 19.5815 105.416 18.7795H105.386L105.299 19.8353H104.002C104.044 19.2871 104.058 18.6664 104.058 17.992V9.85742H105.582V13.9965H105.611C106.063 13.2366 106.794 12.8566 107.796 12.8566C109.446 12.8566 110.602 14.2648 110.602 16.3184C110.602 18.4416 109.318 19.9905 107.571 19.9905ZM107.261 14.0502C106.385 14.0502 105.584 14.8101 105.584 15.8659V17.0624C105.584 18.0051 106.304 18.7795 107.235 18.7795C108.376 18.7795 109.054 17.8513 109.054 16.3735C109.052 14.9943 108.346 14.0502 107.261 14.0502ZM114.375 19.8353H112.854V9.85742H114.375V19.8353ZM122.662 16.781H118.092C118.123 18.0761 118.98 18.8071 120.249 18.8071C120.926 18.8071 121.546 18.694 122.096 18.4837L122.332 19.5395C121.684 19.8208 120.923 19.9615 120.036 19.9615C117.892 19.9615 116.623 18.6098 116.623 16.5142C116.623 14.4171 117.922 12.8406 119.864 12.8406C121.612 12.8406 122.713 14.1357 122.713 16.0922C122.719 16.359 122.706 16.5983 122.662 16.781ZM121.266 15.6977C121.266 14.6419 120.73 13.8964 119.757 13.8964C118.882 13.8964 118.194 14.6564 118.092 15.6977H121.266ZM131.889 19.9905C129.887 19.9905 128.59 18.4982 128.59 16.4721C128.59 14.3605 129.915 12.8551 132.004 12.8551C133.975 12.8551 135.303 14.2764 135.303 16.3605C135.303 18.4982 133.935 19.9905 131.889 19.9905ZM131.947 13.9661C130.848 13.9661 130.143 14.9928 130.143 16.4286C130.143 17.8368 130.862 18.8636 131.933 18.8636C133.004 18.8636 133.721 17.7658 133.721 16.3996C133.722 15.0074 133.018 13.9661 131.947 13.9661ZM143.487 19.8353H141.966V15.908C141.966 14.6984 141.501 14.0922 140.585 14.0922C139.683 14.0922 139.061 14.8667 139.061 15.7673V19.8353H137.54V14.9508C137.54 14.346 137.524 13.6978 137.483 12.9944H138.823L138.894 14.0502H138.936C139.343 13.3192 140.177 12.8537 141.106 12.8537C142.543 12.8537 143.487 13.9516 143.487 15.7383V19.8353H143.487ZM153.448 14.1357H151.773V17.4569C151.773 18.3024 152.068 18.7244 152.659 18.7244C152.928 18.7244 153.154 18.6954 153.336 18.6533L153.378 19.8078C153.082 19.921 152.685 19.9774 152.196 19.9774C150.996 19.9774 150.28 19.3161 150.28 17.5845V14.1357H149.28V12.9958H150.28V11.7428L151.773 11.2917V12.9944H153.448V14.1357ZM161.51 19.8353H159.986V15.937C159.986 14.7129 159.521 14.0937 158.605 14.0937C157.816 14.0937 157.084 14.6288 157.084 15.7122V19.8353H155.56V9.85742H157.084V13.9661H157.113C157.592 13.2206 158.284 12.8537 159.171 12.8537C160.622 12.8537 161.51 13.9791 161.51 15.7673V19.8353ZM169.289 16.781H164.72C164.749 18.0761 165.606 18.8071 166.876 18.8071C167.555 18.8071 168.173 18.694 168.723 18.4837L168.961 19.5395C168.313 19.8208 167.55 19.9615 166.663 19.9615C164.519 19.9615 163.25 18.6098 163.25 16.5142C163.25 14.4171 164.549 12.8406 166.491 12.8406C168.239 12.8406 169.34 14.1357 169.34 16.0922C169.345 16.359 169.331 16.5983 169.289 16.781ZM167.893 15.6977C167.893 14.6419 167.358 13.8964 166.385 13.8964C165.509 13.8964 164.82 14.6564 164.72 15.6977H167.893Z" fill="white"/>
</g>
<defs>
<linearGradient id="paint0_linear_722_2476" x1="143.754" y1="58.5067" x2="143.754" y2="6.23004" gradientUnits="userSpaceOnUse">
<stop stop-color="#1A1A1A" stop-opacity="0.1"/>
<stop offset="0.123" stop-color="#212121" stop-opacity="0.151"/>
<stop offset="0.308" stop-color="#353535" stop-opacity="0.227"/>
<stop offset="0.532" stop-color="#575757" stop-opacity="0.318"/>
<stop offset="0.783" stop-color="#858585" stop-opacity="0.421"/>
<stop offset="1" stop-color="#B3B3B3" stop-opacity="0.51"/>
</linearGradient>
<clipPath id="clip0_722_2476">
<rect width="196" height="58" fill="white" transform="translate(0 0.351562)"/>
</clipPath>
</defs>
</svg>
