<svg width="60" height="65" viewBox="0 0 60 65" fill="none" xmlns="http://www.w3.org/2000/svg">
<rect x="0.5" y="-7.14844" width="71" height="71" rx="35.5" fill="white"/>
<rect x="0.5" y="-7.14844" width="71" height="71" rx="35.5" stroke="#4251DA"/>
<g clip-path="url(#clip0_555_3155)">
<path d="M48 24.7399H37.2831L31.5472 18.837V17.3224C31.5472 16.7865 31.9699 16.3516 32.4906 16.3516H48V24.7399ZM37.8416 23.3419H46.6416V17.7496H32.9057V18.2622L37.8416 23.3419Z" fill="#4251DA"/>
<path d="M32.9057 40.3516H24V17.0506C24 16.6622 24.3019 16.3516 24.6793 16.3516C25.0566 16.3516 25.3585 16.6622 25.3585 17.0506V38.9535H31.5472V27.9244L41.3359 37.9982L45.7133 33.4933L31.5472 18.9147V17.3224C31.5472 16.7865 31.9699 16.3516 32.4906 16.3516H32.9057V18.3399L47.6302 33.4933L41.3359 39.971L32.9057 31.2953V40.3516Z" fill="#4251DA"/>
</g>
<defs>
<clipPath id="clip0_555_3155">
<rect width="24" height="24" fill="white" transform="translate(24 16.3516)"/>
</clipPath>
</defs>
</svg>
