<svg width="1440" height="1056" viewBox="0 0 1440 1056" fill="none" xmlns="http://www.w3.org/2000/svg">
<circle cx="695" cy="310" r="650.5" stroke="url(#paint0_linear_1_4875)"/>
<path fill-rule="evenodd" clip-rule="evenodd" d="M43.3757 316.63C48.6945 321.947 49.9011 315.796 53.2876 319.18C56.5524 322.444 58.4289 323.098 54.2924 327.233C53.7742 327.649 50.4822 332.659 38.9128 321.093C27.3421 309.525 32.3488 306.23 32.7653 305.712C36.9119 301.565 37.5545 303.453 40.8194 306.716C44.2059 310.102 38.0569 311.313 43.3757 316.63Z" fill="#5BB98C"/>
<g filter="url(#filter0_d_1_4875)">
<path d="M81.537 74.4073C81.6049 74.5456 81.6498 74.6936 81.6698 74.8458L82.0411 80.3657V80.3657L82.2254 83.1401C82.2273 83.4254 82.272 83.7089 82.3582 83.9814C82.5808 84.5101 83.1162 84.8461 83.6987 84.8226L92.5751 84.242C92.9595 84.2357 93.3307 84.3795 93.607 84.6417C93.8373 84.8602 93.9859 85.1461 94.0328 85.4535L94.0485 85.6402C93.6812 90.7265 89.9455 94.9689 84.8698 96.064C79.7941 97.1591 74.5892 94.8457 72.0809 90.3798C71.3578 89.0824 70.9062 87.6563 70.7525 86.1853C70.6883 85.7498 70.66 85.31 70.668 84.87C70.66 79.417 74.5433 74.7026 79.9791 73.5661C80.6333 73.4642 81.2747 73.8105 81.537 74.4073Z" fill="#4251DA"/>
<path opacity="0.4" d="M85.16 69.6677C91.2399 69.8224 96.3498 74.1944 97.3333 80.083L97.3239 80.1265V80.1265L97.2971 80.1897L97.3008 80.3631C97.2869 80.5929 97.1982 80.814 97.0453 80.9926C96.886 81.1787 96.6684 81.3054 96.4288 81.3545L96.2827 81.3746L86.0416 82.0381C85.701 82.0717 85.3618 81.9619 85.1085 81.7359C84.8974 81.5476 84.7624 81.2934 84.7243 81.0196L84.0369 70.7934C84.0249 70.7588 84.0249 70.7213 84.0369 70.6868C84.0463 70.4049 84.1704 70.1384 84.3814 69.947C84.5924 69.7555 84.8729 69.6549 85.16 69.6677Z" fill="#4251DA"/>
</g>
<circle cx="695" cy="310" r="745.5" stroke="url(#paint1_linear_1_4875)"/>
<path d="M520.7 522C523.605 529.781 517.411 550.743 509.137 562.03C500.222 574.249 493.077 579.391 474.922 586.496C475.937 587.134 476.821 587.567 477.542 588.088C478.388 588.648 479.277 589.247 479.961 589.977C480.174 590.18 480.194 590.928 479.993 591.224C479.793 591.521 479.09 591.665 478.796 591.548C476.021 590.375 473.327 589.118 470.549 587.862C469.665 587.429 469.396 586.687 469.871 585.76C471.82 582.338 473.726 578.876 475.759 575.453C476.238 574.691 477.137 574.084 477.947 573.231C479.132 575.652 477.462 576.987 476.878 578.541C476.297 580.179 475.422 581.7 474.516 583.679C480.264 582.4 485.156 580.23 489.697 577.32C506.389 566.72 515.634 551.165 519.087 531.983C519.521 529.476 519.663 526.936 520.014 524.431C520.246 523.759 520.438 523.13 520.7 522Z" fill="#606DE1"/>
<rect x="101" y="796" width="50" height="84" rx="25" fill="white" stroke="#E4E4E7"/>
<path d="M127.25 822C127.25 821.31 126.69 820.75 126 820.75C125.31 820.75 124.75 821.31 124.75 822L127.25 822ZM125.116 854.884C125.604 855.372 126.396 855.372 126.884 854.884L134.839 846.929C135.327 846.441 135.327 845.649 134.839 845.161C134.351 844.673 133.559 844.673 133.071 845.161L126 852.232L118.929 845.161C118.441 844.673 117.649 844.673 117.161 845.161C116.673 845.649 116.673 846.441 117.161 846.929L125.116 854.884ZM124.75 822L124.75 854L127.25 854L127.25 822L124.75 822Z" fill="#27272A"/>
<defs>
<filter id="filter0_d_1_4875" x="44" y="43" width="80" height="80" filterUnits="userSpaceOnUse" color-interpolation-filters="sRGB">
<feFlood flood-opacity="0" result="BackgroundImageFix"/>
<feColorMatrix in="SourceAlpha" type="matrix" values="0 0 0 0 0 0 0 0 0 0 0 0 0 0 0 0 0 0 127 0" result="hardAlpha"/>
<feOffset/>
<feGaussianBlur stdDeviation="12"/>
<feComposite in2="hardAlpha" operator="out"/>
<feColorMatrix type="matrix" values="0 0 0 0 0.258824 0 0 0 0 0.317647 0 0 0 0 0.854902 0 0 0 0.24 0"/>
<feBlend mode="normal" in2="BackgroundImageFix" result="effect1_dropShadow_1_4875"/>
<feBlend mode="normal" in="SourceGraphic" in2="effect1_dropShadow_1_4875" result="shape"/>
</filter>
<linearGradient id="paint0_linear_1_4875" x1="220.5" y1="-167" x2="322.5" y2="833" gradientUnits="userSpaceOnUse">
<stop stop-color="#E4E4E7"/>
<stop offset="1" stop-color="#E4E4E7" stop-opacity="0"/>
</linearGradient>
<linearGradient id="paint1_linear_1_4875" x1="-132" y1="705.5" x2="890" y2="997.5" gradientUnits="userSpaceOnUse">
<stop stop-color="#E4E4E7"/>
<stop offset="1" stop-color="#E4E4E7" stop-opacity="0"/>
</linearGradient>
</defs>
</svg>
