<svg xmlns="http://www.w3.org/2000/svg" width="16" height="16" viewBox="0 0 16 16" fill="none">
  <g clip-path="url(#clip0_562_373)">
    <path d="M16.1851 9.98328C16.1799 8.79351 16.1762 7.93379 15.591 7.17747C14.9281 6.32125 13.9056 6.17616 13.0767 6.15147C13.2163 5.55325 13.2567 4.88999 13.1921 4.17303C13.1744 1.78532 11.3978 0.0690446 8.93204 0.00100065L8.89652 0L5.12508 0.00300194L5.08455 0.00283516C3.61777 0.00283516 2.45836 0.440785 1.63833 1.30434C1.13083 1.83852 0.456733 2.77162 0.385353 4.28043L0.382351 10.3644C0.375013 10.4793 0.386521 10.5953 0.38502 10.7146C0.38502 12.4455 0.662032 13.6915 1.52709 14.6123C2.39148 15.533 3.66964 15.9998 5.32554 15.9998C5.3614 15.9998 5.39759 15.9997 5.43378 15.9992H11.1953H11.209C12.6863 15.9868 13.9346 15.4992 14.819 14.5891C15.7017 13.6807 16.1771 12.3863 16.1932 10.8465C16.1931 10.8465 16.1861 10.2266 16.1851 9.98328ZM5.43094 3.24493L8.65336 3.24109C9.41285 3.2531 10.0189 3.93337 10.0066 4.69286C9.99456 5.44485 9.38133 5.99354 8.63201 5.99354C8.62467 5.99354 5.38742 5.99487 5.38742 5.99487C4.62793 5.9827 4.0222 5.35729 4.03438 4.59814C4.04638 3.83865 4.67045 3.23759 5.43094 3.24493ZM11.4879 12.2966H5.04319C4.28387 12.2966 3.66797 11.681 3.66797 10.9214C3.66797 10.1619 4.28387 9.54617 5.04319 9.54617H11.488C12.2477 9.54617 12.8632 10.1619 12.8632 10.9214C12.8632 11.681 12.2475 12.2966 11.4879 12.2966Z" fill="white"/>
  </g>
  <defs>
    <clipPath id="clip0_562_373">
      <rect width="16" height="16" fill="white"/>
    </clipPath>
  </defs>
</svg>