<svg width="24" height="25" viewBox="0 0 24 25" fill="none" xmlns="http://www.w3.org/2000/svg">
<g clip-path="url(#clip0_555_3223)">
<path d="M24 8.73991H13.283L7.54718 2.837V1.32244C7.54718 0.786514 7.96982 0.351562 8.49058 0.351562H24V8.73991ZM13.8415 7.34185H22.6415V1.74962H8.90567V2.26224L13.8415 7.34185Z" fill="#4251DA"/>
<path d="M8.90569 24.3516H3.05176e-05V1.05059C3.05176e-05 0.662242 0.301917 0.351562 0.679276 0.351562C1.05663 0.351562 1.35852 0.662242 1.35852 1.05059V22.9535H7.5472V11.9244L17.3359 21.9982L21.7132 17.4933L7.5472 2.91467V1.32244C7.5472 0.786514 7.96985 0.351562 8.4906 0.351562H8.90569V2.33991L23.6302 17.4933L17.3359 23.971L8.90569 15.2953V24.3516Z" fill="#4251DA"/>
</g>
<defs>
<clipPath id="clip0_555_3223">
<rect width="24" height="24" fill="white" transform="translate(0 0.351562)"/>
</clipPath>
</defs>
</svg>
