<svg width="390" height="551" viewBox="0 0 390 551" fill="none" xmlns="http://www.w3.org/2000/svg">
<g clip-path="url(#clip0_577_4493)">
<circle opacity="0.66" cx="195" cy="322.726" r="300" transform="rotate(-52.4739 195 322.726)" stroke="url(#paint0_linear_577_4493)" stroke-width="0.641026"/>
<circle opacity="0.22" cx="195" cy="322.727" r="263.365" transform="rotate(-52.4739 195 322.727)" stroke="url(#paint1_linear_577_4493)" stroke-width="0.641026"/>
<circle opacity="0.11" cx="195" cy="322.726" r="221.845" transform="rotate(-52.4739 195 322.726)" stroke="url(#paint2_linear_577_4493)" stroke-width="0.641026"/>
<g filter="url(#filter0_d_577_4493)">
<path fill-rule="evenodd" clip-rule="evenodd" d="M34.263 524.937C34.263 524.937 30.162 524.939 30.1556 524.939C28.6812 524.948 27.7683 525.918 27.7683 527.398V532.31C27.7683 533.797 28.6882 534.771 30.1754 534.771C30.1754 534.771 34.2758 534.769 34.2827 534.769C35.7571 534.76 36.6706 533.79 36.6706 532.31V527.398C36.6706 525.91 35.7501 524.937 34.263 524.937Z" fill="#4251DA" stroke="white" stroke-opacity="0.6" stroke-width="0.641026" stroke-linecap="round" stroke-linejoin="round"/>
<path fill-rule="evenodd" clip-rule="evenodd" d="M34.1603 532.134H30.3035H34.1603Z" fill="#4251DA"/>
<path d="M34.1603 532.134H30.3035" stroke="white" stroke-opacity="0.4" stroke-width="0.641026" stroke-linecap="round" stroke-linejoin="round"/>
<path d="M34.1603 529.897H30.3035" stroke="white" stroke-opacity="0.6" stroke-width="0.641026" stroke-linecap="round" stroke-linejoin="round"/>
<path fill-rule="evenodd" clip-rule="evenodd" d="M31.7752 527.667H30.3035H31.7752Z" fill="#4251DA"/>
<path d="M31.7752 527.667H30.3035" stroke="white" stroke-opacity="0.4" stroke-width="0.641026" stroke-linecap="round" stroke-linejoin="round"/>
</g>
<g filter="url(#filter1_d_577_4493)">
<path fill-rule="evenodd" clip-rule="evenodd" d="M309.015 49.903C310.64 49.9075 311.735 48.5726 311.735 46.932V43.263C311.735 41.6224 310.64 40.2876 309.015 40.2876H303.771C302.146 40.2876 301.051 41.6224 301.051 43.263V46.932C301.051 48.5726 302.146 49.9075 303.771 49.903H309.015Z" fill="#4251DA" stroke="white" stroke-opacity="0.4" stroke-width="0.641026" stroke-linecap="round" stroke-linejoin="round"/>
<path fill-rule="evenodd" clip-rule="evenodd" d="M309.546 43.4131L307.172 45.3431C306.724 45.6989 306.093 45.6989 305.645 45.3431L303.251 43.4131" fill="#4251DA"/>
<path d="M309.546 43.4131L307.172 45.3431C306.724 45.6989 306.093 45.6989 305.645 45.3431L303.251 43.4131" stroke="white" stroke-opacity="0.4" stroke-width="0.641026" stroke-linecap="round" stroke-linejoin="round"/>
</g>
<g filter="url(#filter2_d_577_4493)">
<path fill-rule="evenodd" clip-rule="evenodd" d="M355.916 116.16C353.85 116.16 352.085 116.473 352.085 117.724C352.085 118.975 353.839 119.298 355.916 119.298C357.982 119.298 359.746 118.985 359.746 117.735C359.746 116.484 357.993 116.16 355.916 116.16Z" fill="#4251DA" stroke="white" stroke-opacity="0.4" stroke-width="0.641026" stroke-linecap="round" stroke-linejoin="round"/>
<path fill-rule="evenodd" clip-rule="evenodd" d="M355.916 114.376C357.272 114.376 358.37 113.276 358.37 111.921C358.37 110.565 357.272 109.466 355.916 109.466C354.56 109.466 353.46 110.565 353.46 111.921C353.456 113.272 354.548 114.371 355.898 114.376H355.916Z" fill="#4251DA" stroke="white" stroke-opacity="0.4" stroke-width="0.610501" stroke-linecap="round" stroke-linejoin="round"/>
</g>
<g filter="url(#filter3_d_577_4493)">
<path fill-rule="evenodd" clip-rule="evenodd" d="M366.938 174.395H363.384C362.273 174.391 361.362 175.276 361.336 176.387V182.11C361.311 183.239 362.206 184.174 363.335 184.199C363.351 184.199 363.367 184.2 363.384 184.199H367.652C368.77 184.154 369.652 183.229 369.644 182.11V177.213L366.938 174.395Z" fill="#4251DA" stroke="white" stroke-opacity="0.4" stroke-width="0.641026" stroke-linecap="round" stroke-linejoin="round"/>
<path fill-rule="evenodd" clip-rule="evenodd" d="M366.798 174.389V175.943C366.798 176.701 367.411 177.316 368.17 177.318H369.641" fill="#4251DA"/>
<path d="M366.798 174.389V175.943C366.798 176.701 367.411 177.316 368.17 177.318H369.641" stroke="white" stroke-opacity="0.4" stroke-width="0.641026" stroke-linecap="round" stroke-linejoin="round"/>
<path d="M366.698 181.124H363.813" stroke="white" stroke-opacity="0.4" stroke-width="0.641026" stroke-linecap="round" stroke-linejoin="round"/>
<path d="M365.605 179.12H363.812" stroke="white" stroke-opacity="0.4" stroke-width="0.641026" stroke-linecap="round" stroke-linejoin="round"/>
</g>
</g>
<defs>
<filter id="filter0_d_577_4493" x="15.5082" y="514.921" width="33.3334" height="33.3331" filterUnits="userSpaceOnUse" color-interpolation-filters="sRGB">
<feFlood flood-opacity="0" result="BackgroundImageFix"/>
<feColorMatrix in="SourceAlpha" type="matrix" values="0 0 0 0 0 0 0 0 0 0 0 0 0 0 0 0 0 0 127 0" result="hardAlpha"/>
<feOffset dy="1.7094"/>
<feGaussianBlur stdDeviation="5.12821"/>
<feComposite in2="hardAlpha" operator="out"/>
<feColorMatrix type="matrix" values="0 0 0 0 1 0 0 0 0 1 0 0 0 0 1 0 0 0 0.14 0"/>
<feBlend mode="normal" in2="BackgroundImageFix" result="effect1_dropShadow_577_4493"/>
<feBlend mode="normal" in="SourceGraphic" in2="effect1_dropShadow_577_4493" result="shape"/>
</filter>
<filter id="filter1_d_577_4493" x="289.726" y="30.138" width="33.3334" height="33.3331" filterUnits="userSpaceOnUse" color-interpolation-filters="sRGB">
<feFlood flood-opacity="0" result="BackgroundImageFix"/>
<feColorMatrix in="SourceAlpha" type="matrix" values="0 0 0 0 0 0 0 0 0 0 0 0 0 0 0 0 0 0 127 0" result="hardAlpha"/>
<feOffset dy="1.7094"/>
<feGaussianBlur stdDeviation="5.12821"/>
<feComposite in2="hardAlpha" operator="out"/>
<feColorMatrix type="matrix" values="0 0 0 0 1 0 0 0 0 1 0 0 0 0 1 0 0 0 0.14 0"/>
<feBlend mode="normal" in2="BackgroundImageFix" result="effect1_dropShadow_577_4493"/>
<feBlend mode="normal" in="SourceGraphic" in2="effect1_dropShadow_577_4493" result="shape"/>
</filter>
<filter id="filter2_d_577_4493" x="339.257" y="99.4154" width="33.3334" height="33.3331" filterUnits="userSpaceOnUse" color-interpolation-filters="sRGB">
<feFlood flood-opacity="0" result="BackgroundImageFix"/>
<feColorMatrix in="SourceAlpha" type="matrix" values="0 0 0 0 0 0 0 0 0 0 0 0 0 0 0 0 0 0 127 0" result="hardAlpha"/>
<feOffset dy="1.7094"/>
<feGaussianBlur stdDeviation="5.12821"/>
<feComposite in2="hardAlpha" operator="out"/>
<feColorMatrix type="matrix" values="0 0 0 0 1 0 0 0 0 1 0 0 0 0 1 0 0 0 0.14 0"/>
<feBlend mode="normal" in2="BackgroundImageFix" result="effect1_dropShadow_577_4493"/>
<feBlend mode="normal" in="SourceGraphic" in2="effect1_dropShadow_577_4493" result="shape"/>
</filter>
<filter id="filter3_d_577_4493" x="348.809" y="164.373" width="33.3334" height="33.3331" filterUnits="userSpaceOnUse" color-interpolation-filters="sRGB">
<feFlood flood-opacity="0" result="BackgroundImageFix"/>
<feColorMatrix in="SourceAlpha" type="matrix" values="0 0 0 0 0 0 0 0 0 0 0 0 0 0 0 0 0 0 127 0" result="hardAlpha"/>
<feOffset dy="1.7094"/>
<feGaussianBlur stdDeviation="5.12821"/>
<feComposite in2="hardAlpha" operator="out"/>
<feColorMatrix type="matrix" values="0 0 0 0 1 0 0 0 0 1 0 0 0 0 1 0 0 0 0.14 0"/>
<feBlend mode="normal" in2="BackgroundImageFix" result="effect1_dropShadow_577_4493"/>
<feBlend mode="normal" in="SourceGraphic" in2="effect1_dropShadow_577_4493" result="shape"/>
</filter>
<linearGradient id="paint0_linear_577_4493" x1="195" y1="22.7265" x2="195" y2="622.726" gradientUnits="userSpaceOnUse">
<stop offset="0.194712" stop-color="#7D89E7" stop-opacity="0"/>
<stop offset="0.605857" stop-color="#7D89E7"/>
</linearGradient>
<linearGradient id="paint1_linear_577_4493" x1="195" y1="59.3618" x2="195" y2="586.092" gradientUnits="userSpaceOnUse">
<stop offset="0.213523" stop-color="#7D89E7" stop-opacity="0"/>
<stop offset="0.656328" stop-color="#7D89E7"/>
</linearGradient>
<linearGradient id="paint2_linear_577_4493" x1="195" y1="100.881" x2="195" y2="544.572" gradientUnits="userSpaceOnUse">
<stop offset="0.118337" stop-color="#7D89E7" stop-opacity="0"/>
<stop offset="0.430107" stop-color="#7D89E7"/>
</linearGradient>
<clipPath id="clip0_577_4493">
<rect width="600" height="600" fill="white" transform="translate(-225.659 377.912) rotate(-52.4739)"/>
</clipPath>
</defs>
</svg>
