<svg width="1404" height="449" viewBox="0 0 1404 449" fill="none" xmlns="http://www.w3.org/2000/svg">
<g clip-path="url(#clip0_577_2328)">
<circle opacity="0.66" cx="702" cy="224.352" r="702" stroke="url(#paint0_linear_577_2328)" stroke-width="1.5"/>
<circle opacity="0.22" cx="702" cy="224.352" r="616.274" stroke="url(#paint1_linear_577_2328)" stroke-width="1.5"/>
<circle opacity="0.11" cx="702" cy="224.351" r="519.118" stroke="url(#paint2_linear_577_2328)" stroke-width="1.5"/>
<g filter="url(#filter0_d_577_2328)">
<path fill-rule="evenodd" clip-rule="evenodd" d="M28.5974 394.713C29.4408 394.713 30.1487 395.409 30.0197 396.242C29.2632 401.142 25.0684 404.78 20.0092 404.78C14.4118 404.78 9.875 400.243 9.875 394.647C9.875 390.037 13.3776 385.742 17.3211 384.771C18.1684 384.562 19.0368 385.158 19.0368 386.03C19.0368 391.941 19.2355 393.47 20.3579 394.301C21.4803 395.133 22.8 394.713 28.5974 394.713Z" fill="#4251DA" stroke="white" stroke-opacity="0.4" stroke-width="1.5" stroke-linecap="round" stroke-linejoin="round"/>
<path fill-rule="evenodd" clip-rule="evenodd" d="M34.1157 389.791C34.1828 385.994 29.5183 379.873 23.8341 379.978C23.392 379.986 23.038 380.354 23.0183 380.795C22.8749 383.917 23.0683 387.963 23.1762 389.798C23.2091 390.369 23.6578 390.817 24.2275 390.85C26.113 390.958 30.3065 391.106 33.3841 390.64C33.8025 390.577 34.1091 390.213 34.1157 389.791Z" fill="#4251DA" stroke="white" stroke-opacity="0.4" stroke-width="1.5" stroke-linecap="round" stroke-linejoin="round"/>
</g>
<g filter="url(#filter1_d_577_2328)">
<path fill-rule="evenodd" clip-rule="evenodd" d="M90.3716 205.88C90.3716 205.88 80.7753 205.885 80.7603 205.885C77.3103 205.907 75.1741 208.177 75.1741 211.639V223.134C75.1741 226.614 77.3266 228.893 80.8066 228.893C80.8066 228.893 90.4016 228.889 90.4178 228.889C93.8678 228.868 96.0053 226.597 96.0053 223.134V211.639C96.0053 208.159 93.8516 205.88 90.3716 205.88Z" fill="#4251DA" stroke="white" stroke-opacity="0.6" stroke-width="1.5" stroke-linecap="round" stroke-linejoin="round"/>
<path fill-rule="evenodd" clip-rule="evenodd" d="M90.1311 222.722H81.1061H90.1311Z" fill="#4251DA"/>
<path d="M90.1311 222.722H81.1061" stroke="white" stroke-opacity="0.4" stroke-width="1.5" stroke-linecap="round" stroke-linejoin="round"/>
<path d="M90.1311 217.489H81.1061" stroke="white" stroke-opacity="0.6" stroke-width="1.5" stroke-linecap="round" stroke-linejoin="round"/>
<path fill-rule="evenodd" clip-rule="evenodd" d="M84.55 212.268H81.1062H84.55Z" fill="#4251DA"/>
<path d="M84.55 212.268H81.1062" stroke="white" stroke-opacity="0.4" stroke-width="1.5" stroke-linecap="round" stroke-linejoin="round"/>
</g>
<g filter="url(#filter2_d_577_2328)">
<path fill-rule="evenodd" clip-rule="evenodd" d="M1382.14 46.6015C1385.94 46.612 1388.5 43.4885 1388.5 39.6495V31.0641C1388.5 27.2251 1385.94 24.1016 1382.14 24.1016H1369.86C1366.06 24.1016 1363.5 27.2251 1363.5 31.0641V39.6495C1363.5 43.4885 1366.06 46.612 1369.86 46.6015H1382.14Z" fill="#4251DA" stroke="white" stroke-opacity="0.4" stroke-width="1.5" stroke-linecap="round" stroke-linejoin="round"/>
<path fill-rule="evenodd" clip-rule="evenodd" d="M1383.38 31.4155L1377.82 35.9318C1376.77 36.7643 1375.3 36.7643 1374.25 35.9318L1368.65 31.4155" fill="#4251DA"/>
<path d="M1383.38 31.4155L1377.82 35.9318C1376.77 36.7643 1375.3 36.7643 1374.25 35.9318L1368.65 31.4155" stroke="white" stroke-opacity="0.4" stroke-width="1.5" stroke-linecap="round" stroke-linejoin="round"/>
</g>
<g filter="url(#filter3_d_577_2328)">
<path fill-rule="evenodd" clip-rule="evenodd" d="M1318.01 230.199C1313.18 230.199 1309.05 230.93 1309.05 233.858C1309.05 236.785 1313.15 237.542 1318.01 237.542C1322.85 237.542 1326.98 236.81 1326.98 233.884C1326.98 230.958 1322.88 230.199 1318.01 230.199Z" fill="#4251DA" stroke="white" stroke-opacity="0.4" stroke-width="1.5" stroke-linecap="round" stroke-linejoin="round"/>
<path fill-rule="evenodd" clip-rule="evenodd" d="M1318.01 226.024C1321.19 226.024 1323.76 223.451 1323.76 220.279C1323.76 217.106 1321.19 214.535 1318.01 214.535C1314.84 214.535 1312.27 217.106 1312.27 220.279C1312.26 223.441 1314.81 226.013 1317.97 226.024H1318.01Z" fill="#4251DA" stroke="white" stroke-opacity="0.4" stroke-width="1.42857" stroke-linecap="round" stroke-linejoin="round"/>
</g>
<g filter="url(#filter4_d_577_2328)">
<path fill-rule="evenodd" clip-rule="evenodd" d="M1209.42 83.8037H1201.11C1198.51 83.7937 1196.37 85.8662 1196.31 88.465V101.856C1196.26 104.497 1198.35 106.686 1200.99 106.745C1201.03 106.745 1201.07 106.746 1201.11 106.745H1211.09C1213.71 106.639 1215.77 104.476 1215.75 101.856V90.3987L1209.42 83.8037Z" fill="#4251DA" stroke="white" stroke-opacity="0.4" stroke-width="1.5" stroke-linecap="round" stroke-linejoin="round"/>
<path fill-rule="evenodd" clip-rule="evenodd" d="M1209.09 83.7891V87.4253C1209.09 89.2003 1210.53 90.6391 1212.3 90.6441H1215.75" fill="#4251DA"/>
<path d="M1209.09 83.7891V87.4253C1209.09 89.2003 1210.53 90.6391 1212.3 90.6441H1215.75" stroke="white" stroke-opacity="0.4" stroke-width="1.5" stroke-linecap="round" stroke-linejoin="round"/>
<path d="M1208.86 99.5498H1202.11" stroke="white" stroke-opacity="0.4" stroke-width="1.5" stroke-linecap="round" stroke-linejoin="round"/>
<path d="M1206.3 94.8589H1202.11" stroke="white" stroke-opacity="0.4" stroke-width="1.5" stroke-linecap="round" stroke-linejoin="round"/>
</g>
</g>
<defs>
<filter id="filter0_d_577_2328" x="-17" y="357.352" width="78" height="78" filterUnits="userSpaceOnUse" color-interpolation-filters="sRGB">
<feFlood flood-opacity="0" result="BackgroundImageFix"/>
<feColorMatrix in="SourceAlpha" type="matrix" values="0 0 0 0 0 0 0 0 0 0 0 0 0 0 0 0 0 0 127 0" result="hardAlpha"/>
<feOffset dy="4"/>
<feGaussianBlur stdDeviation="12"/>
<feComposite in2="hardAlpha" operator="out"/>
<feColorMatrix type="matrix" values="0 0 0 0 1 0 0 0 0 1 0 0 0 0 1 0 0 0 0.14 0"/>
<feBlend mode="normal" in2="BackgroundImageFix" result="effect1_dropShadow_577_2328"/>
<feBlend mode="normal" in="SourceGraphic" in2="effect1_dropShadow_577_2328" result="shape"/>
</filter>
<filter id="filter1_d_577_2328" x="46.4858" y="182.443" width="78" height="78" filterUnits="userSpaceOnUse" color-interpolation-filters="sRGB">
<feFlood flood-opacity="0" result="BackgroundImageFix"/>
<feColorMatrix in="SourceAlpha" type="matrix" values="0 0 0 0 0 0 0 0 0 0 0 0 0 0 0 0 0 0 127 0" result="hardAlpha"/>
<feOffset dy="4"/>
<feGaussianBlur stdDeviation="12"/>
<feComposite in2="hardAlpha" operator="out"/>
<feColorMatrix type="matrix" values="0 0 0 0 1 0 0 0 0 1 0 0 0 0 1 0 0 0 0.14 0"/>
<feBlend mode="normal" in2="BackgroundImageFix" result="effect1_dropShadow_577_2328"/>
<feBlend mode="normal" in="SourceGraphic" in2="effect1_dropShadow_577_2328" result="shape"/>
</filter>
<filter id="filter2_d_577_2328" x="1337" y="0.351562" width="78" height="78" filterUnits="userSpaceOnUse" color-interpolation-filters="sRGB">
<feFlood flood-opacity="0" result="BackgroundImageFix"/>
<feColorMatrix in="SourceAlpha" type="matrix" values="0 0 0 0 0 0 0 0 0 0 0 0 0 0 0 0 0 0 127 0" result="hardAlpha"/>
<feOffset dy="4"/>
<feGaussianBlur stdDeviation="12"/>
<feComposite in2="hardAlpha" operator="out"/>
<feColorMatrix type="matrix" values="0 0 0 0 1 0 0 0 0 1 0 0 0 0 1 0 0 0 0.14 0"/>
<feBlend mode="normal" in2="BackgroundImageFix" result="effect1_dropShadow_577_2328"/>
<feBlend mode="normal" in="SourceGraphic" in2="effect1_dropShadow_577_2328" result="shape"/>
</filter>
<filter id="filter3_d_577_2328" x="1279.03" y="191.017" width="78" height="78" filterUnits="userSpaceOnUse" color-interpolation-filters="sRGB">
<feFlood flood-opacity="0" result="BackgroundImageFix"/>
<feColorMatrix in="SourceAlpha" type="matrix" values="0 0 0 0 0 0 0 0 0 0 0 0 0 0 0 0 0 0 127 0" result="hardAlpha"/>
<feOffset dy="4"/>
<feGaussianBlur stdDeviation="12"/>
<feComposite in2="hardAlpha" operator="out"/>
<feColorMatrix type="matrix" values="0 0 0 0 1 0 0 0 0 1 0 0 0 0 1 0 0 0 0.14 0"/>
<feBlend mode="normal" in2="BackgroundImageFix" result="effect1_dropShadow_577_2328"/>
<feBlend mode="normal" in="SourceGraphic" in2="effect1_dropShadow_577_2328" result="shape"/>
</filter>
<filter id="filter4_d_577_2328" x="1167" y="60.3516" width="78" height="78" filterUnits="userSpaceOnUse" color-interpolation-filters="sRGB">
<feFlood flood-opacity="0" result="BackgroundImageFix"/>
<feColorMatrix in="SourceAlpha" type="matrix" values="0 0 0 0 0 0 0 0 0 0 0 0 0 0 0 0 0 0 127 0" result="hardAlpha"/>
<feOffset dy="4"/>
<feGaussianBlur stdDeviation="12"/>
<feComposite in2="hardAlpha" operator="out"/>
<feColorMatrix type="matrix" values="0 0 0 0 1 0 0 0 0 1 0 0 0 0 1 0 0 0 0.14 0"/>
<feBlend mode="normal" in2="BackgroundImageFix" result="effect1_dropShadow_577_2328"/>
<feBlend mode="normal" in="SourceGraphic" in2="effect1_dropShadow_577_2328" result="shape"/>
</filter>
<linearGradient id="paint0_linear_577_2328" x1="702" y1="-477.648" x2="702" y2="926.352" gradientUnits="userSpaceOnUse">
<stop offset="0.194712" stop-color="#7D89E7" stop-opacity="0"/>
<stop offset="0.605857" stop-color="#7D89E7"/>
</linearGradient>
<linearGradient id="paint1_linear_577_2328" x1="702" y1="-391.923" x2="702" y2="840.626" gradientUnits="userSpaceOnUse">
<stop offset="0.213523" stop-color="#7D89E7" stop-opacity="0"/>
<stop offset="0.656328" stop-color="#7D89E7"/>
</linearGradient>
<linearGradient id="paint2_linear_577_2328" x1="702" y1="-294.767" x2="702" y2="743.469" gradientUnits="userSpaceOnUse">
<stop offset="0.118337" stop-color="#7D89E7" stop-opacity="0"/>
<stop offset="0.430107" stop-color="#7D89E7"/>
</linearGradient>
<clipPath id="clip0_577_2328">
<rect width="1404" height="1404" fill="white" transform="translate(0 -477.648)"/>
</clipPath>
</defs>
</svg>
