<svg width="196" height="59" viewBox="0 0 196 59" fill="none" xmlns="http://www.w3.org/2000/svg">
<rect width="196" height="59" fill="#686868"/>
<g id="Final Design">
<path d="M-616 -6889C-616 -6896.73 -609.732 -6903 -602 -6903H1010C1017.73 -6903 1024 -6896.73 1024 -6889V1355C1024 1362.73 1017.73 1369 1010 1369H-602C-609.732 1369 -616 1362.73 -616 1355V-6889Z" fill="#18181B"/>
<path d="M-602 -6902H1010V-6904H-602V-6902ZM1023 -6889V1355H1025V-6889H1023ZM1010 1368H-602V1370H1010V1368ZM-615 1355V-6889H-617V1355H-615ZM-602 1368C-609.18 1368 -615 1362.18 -615 1355H-617C-617 1363.28 -610.284 1370 -602 1370V1368ZM1023 1355C1023 1362.18 1017.18 1368 1010 1368V1370C1018.28 1370 1025 1363.28 1025 1355H1023ZM1010 -6902C1017.18 -6902 1023 -6896.18 1023 -6889H1025C1025 -6897.28 1018.28 -6904 1010 -6904V-6902ZM-602 -6904C-610.284 -6904 -617 -6897.28 -617 -6889H-615C-615 -6896.18 -609.18 -6902 -602 -6902V-6904Z" fill="white" fill-opacity="0.6"/>
<g id="landing page" clip-path="url(#clip0_243_26330)">
<rect width="1440" height="7996.35" transform="translate(-516 -6803)" fill="white"/>
<g id="section 13">
<rect width="1440" height="600" transform="translate(-516 -384.648)" fill="white"/>
<g id="Gat App Now Card">
<g id="Design">
<g id="Design_2">
<rect x="-154.5" y="-26.6484" width="192" height="192" rx="96" fill="#C8CBF5"/>
</g>
</g>
<g id="Card">
<g id="Card_2" filter="url(#filter0_bd_243_26330)">
<rect x="-146" y="-227.648" width="700" height="326" rx="40" fill="url(#paint0_linear_243_26330)" shape-rendering="crispEdges"/>
<rect x="-144.146" y="-225.794" width="696.292" height="322.292" rx="38.146" stroke="url(#paint1_linear_243_26330)" stroke-width="3.70797" shape-rendering="crispEdges"/>
</g>
<g id="Card_3">
<rect x="-144.5" y="-226.148" width="697" height="323" rx="38.5" fill="#4251DA"/>
<rect x="-144.5" y="-226.148" width="697" height="323" rx="38.5" stroke="url(#paint2_linear_243_26330)" stroke-width="3"/>
</g>
</g>
<g id="Gat App Now">
<g id="App store and ">
<g id="aivalable-on-the-app-store-2 2" clip-path="url(#clip1_243_26330)">
<path id="Vector" d="M194.7 51.5021C194.7 54.571 192.21 57.0567 189.13 57.0567H6.8695C3.79137 57.0567 1.29295 54.571 1.29295 51.5021V7.20634C1.29295 4.13901 3.79149 1.64453 6.8695 1.64453H189.129C192.21 1.64453 194.698 4.13901 194.698 7.20634L194.7 51.5021Z" fill="white"/>
<path id="Vector_2" d="M189.13 58.3501H6.86952C3.08249 58.3501 0 55.2798 0 51.5033V7.20898C0 3.42957 3.08249 0.35498 6.86952 0.35498H189.129C192.912 0.35498 195.998 3.42957 195.998 7.20898V51.5033C196.001 55.2798 192.914 58.3501 189.13 58.3501Z" fill="#C8CBF5"/>
<path id="Vector_3" d="M194.7 51.5021C194.7 54.571 192.21 57.0567 189.13 57.0567H6.8695C3.79137 57.0567 1.29295 54.571 1.29295 51.5021V7.20634C1.29295 4.13901 3.79149 1.64453 6.8695 1.64453H189.129C192.21 1.64453 194.698 4.13901 194.698 7.20634L194.7 51.5021Z" fill="black"/>
<path id="Vector_4" d="M189.13 0.354004H91.506L129.744 58.3491H189.13C192.913 58.3491 196 55.2789 196 51.498V7.20801C196.001 3.42859 192.914 0.354004 189.13 0.354004Z" fill="url(#paint3_linear_243_26330)"/>
<g id="icon">
<path id="orange" d="M32.5665 20.4526C32.5665 20.4526 19.0492 12.9699 18.2533 12.5329C17.4573 12.0958 16.6614 12.3607 16.6614 13.2745V45.523C16.6614 46.2117 17.2318 46.503 17.9216 46.1322C18.6114 45.7481 32.5665 38.027 32.5665 38.027C32.5665 38.027 34.4634 36.9808 35.4053 36.451C36.9308 35.6034 39.9818 33.9215 39.9818 33.9215C39.9818 33.9215 46.2828 30.4384 47.1185 29.9748C47.9542 29.5113 47.8746 28.8756 47.1716 28.518C46.4685 28.1605 39.995 24.5449 39.995 24.5449L32.5665 20.4526Z" fill="url(#paint4_linear_243_26330)"/>
<g id="blue">
<g id="Clip-2">
<path id="path-3_1_" d="M35.0595 29.1945L17.284 12.375C16.8728 12.4677 16.6208 12.7856 16.6208 13.3021V45.4843C16.6208 45.9214 16.7932 46.1862 17.0187 46.2789L35.0595 29.1945Z" fill="url(#paint5_linear_243_26330)"/>
</g>
<mask id="mask0_243_26330" style="mask-type:alpha" maskUnits="userSpaceOnUse" x="16" y="12" width="20" height="35">
<g id="mask-4">
<g id="Group">
<path id="path-3" d="M35.0595 29.1945L17.284 12.375C16.8728 12.4677 16.6208 12.7856 16.6208 13.3021V45.4843C16.6208 45.9214 16.7932 46.1862 17.0187 46.2789L35.0595 29.1945Z" fill="white"/>
</g>
</g>
</mask>
<g mask="url(#mask0_243_26330)">
</g>
</g>
<g id="red">
<mask id="mask1_243_26330" style="mask-type:alpha" maskUnits="userSpaceOnUse" x="17" y="29" width="24" height="18">
<g id="mask-6">
<g id="Group_2">
<path id="path-5" d="M17.7469 46.1855L28.0275 40.5437C30.5612 39.1399 32.5642 38.0274 32.5642 38.0274L40.0326 34.0146L35.0581 29.1938L17.0173 46.2783C17.2163 46.3445 17.5745 46.3047 17.853 46.1723" fill="white"/>
</g>
</g>
</mask>
<g mask="url(#mask1_243_26330)">
<path id="Fill-7" d="M32.5369 20.4531C32.5103 20.5193 18.993 13.0234 18.2104 12.6393C17.4144 12.1361 16.6185 12.4142 16.6185 13.3015V45.6162C16.6185 46.3313 17.1889 46.6227 17.8124 46.2784C18.5685 45.8546 32.5103 38.1335 32.5369 38.0673L39.9654 33.9617C39.9256 34.0147 46.2134 30.5316 46.996 30.121C47.8981 29.6045 47.8052 28.9688 47.1287 28.6642C46.3991 28.2404 39.9256 24.6249 39.9654 24.5587L32.5369 20.4531Z" fill="url(#paint6_linear_243_26330)"/>
</g>
</g>
<g id="green">
<g id="Clip-5">
<path id="path-9_1_" d="M18.2232 12.5195C17.8783 12.3474 17.5467 12.2944 17.2681 12.3606L35.0568 29.2066L39.9783 24.5581L32.563 20.4525C32.563 20.4525 25.5722 16.5853 21.3538 14.2545L18.2232 12.5195Z" fill="url(#paint7_linear_243_26330)"/>
</g>
<mask id="mask2_243_26330" style="mask-type:alpha" maskUnits="userSpaceOnUse" x="17" y="12" width="23" height="18">
<g id="mask-10">
<g id="Group_3">
<path id="path-9" d="M18.2232 12.5195C17.8783 12.3474 17.5467 12.2944 17.2681 12.3606L35.0568 29.2066L39.9783 24.5581L32.563 20.4525C32.563 20.4525 25.5722 16.5853 21.3538 14.2545L18.2232 12.5195Z" fill="white"/>
</g>
</g>
</mask>
<g mask="url(#mask2_243_26330)">
</g>
</g>
</g>
<g id="Google-play">
<path id="Fill-1_1_" d="M134.363 41.8329L133.03 43.0915C132.718 43.2593 132.418 43.4631 132.118 43.595C131.193 44.0145 130.257 44.1224 129.416 44.1224C128.528 44.1224 127.135 44.0625 125.718 43.0316C123.749 41.6411 122.884 39.2316 122.884 37.1459C122.884 32.8185 126.39 30.6968 129.26 30.6968C130.257 30.6968 131.289 30.9485 132.118 31.4759C133.51 32.399 133.871 33.5977 134.063 34.245L127.531 36.8941L125.394 37.062C126.09 40.6102 128.48 42.672 131.121 42.672C132.442 42.672 133.414 42.2404 134.315 41.7969C134.315 41.7969 134.495 41.701 134.363 41.8329ZM130.377 34.7125C130.905 34.5207 131.169 34.3529 131.169 33.9573C131.169 32.8305 129.932 31.5359 128.444 31.5359C127.351 31.5359 125.286 32.4109 125.286 35.4437C125.286 35.9232 125.346 36.4266 125.37 36.9301L130.377 34.7125Z" fill="white"/>
<path id="Fill-2" d="M120.723 41.6772C120.723 42.756 120.915 42.9238 121.828 43.0078C122.308 43.0677 122.776 43.0917 123.245 43.1396L122.224 43.751H117.337C117.974 42.9119 118.094 42.828 118.094 42.2765V41.6532L118.082 25.1109H115.921L117.998 24.104H121.96C121.095 24.6075 120.843 24.9071 120.735 25.8781L120.723 41.6772Z" fill="white"/>
<path id="Fill-3" d="M113.147 32.0636C113.783 32.591 115.104 33.7058 115.104 35.8155C115.104 37.8773 113.952 38.8483 112.787 39.7713C112.427 40.1309 112.006 40.5265 112.006 41.1378C112.006 41.7492 112.427 42.0848 112.727 42.3366L113.723 43.1157C114.936 44.1466 116.041 45.0936 116.041 47.0116C116.041 49.6248 113.519 52.2739 108.765 52.2739C104.754 52.2739 102.821 50.356 102.821 48.2942C102.821 47.2873 103.314 45.8728 104.959 44.9018C106.675 43.8469 108.993 43.7031 110.241 43.6192C109.857 43.1157 109.413 42.5883 109.413 41.7252C109.413 41.2577 109.557 40.97 109.689 40.6344C109.389 40.6584 109.077 40.6943 108.801 40.6943C105.871 40.6943 104.214 38.4887 104.214 36.319C104.214 35.0364 104.79 33.6219 105.991 32.591C107.564 31.2844 109.449 31.0566 110.938 31.0566H116.641L114.864 32.0636H113.147ZM111.202 44.3984C110.974 44.3624 110.842 44.3624 110.566 44.3624C110.314 44.3624 108.801 44.4223 107.636 44.8179C107.024 45.0457 105.235 45.7289 105.235 47.7428C105.235 49.7566 107.156 51.2071 110.145 51.2071C112.823 51.2071 114.24 49.9005 114.24 48.1503C114.24 46.6879 113.315 45.9207 111.202 44.3984ZM111.982 39.0281C112.619 38.3928 112.679 37.5057 112.679 37.0023C112.679 35.0004 111.502 31.8957 109.209 31.8957C108.501 31.8957 107.72 32.2554 107.276 32.8188C106.808 33.3941 106.675 34.1493 106.675 34.8686C106.675 36.7266 107.756 39.8073 110.121 39.8073C110.806 39.8073 111.55 39.4716 111.982 39.0281Z" fill="white"/>
<path id="Fill-4_1_" d="M95.9054 44.1224C91.499 44.1224 89.1457 40.6461 89.1457 37.5055C89.1457 33.8374 92.1113 30.6968 96.3256 30.6968C100.396 30.6968 102.953 33.9213 102.953 37.3137C102.953 40.6221 100.432 44.1224 95.9054 44.1224ZM99.3513 41.8568C100.024 40.9578 100.192 39.831 100.192 38.7402C100.192 36.2588 99.0272 31.5359 95.5692 31.5359C94.6567 31.5359 93.7322 31.8955 93.0598 32.4949C91.9792 33.4778 91.7751 34.7125 91.7751 35.9232C91.7751 38.7042 93.1319 43.2833 96.5057 43.2833C97.6104 43.2833 98.715 42.7559 99.3513 41.8568Z" fill="white"/>
<path id="Fill-5" d="M81.1373 44.1224C76.7308 44.1224 74.3775 40.6461 74.3775 37.5055C74.3775 33.8374 77.3432 30.6968 81.5575 30.6968C85.6278 30.6968 88.1852 33.9213 88.1852 37.3137C88.1852 40.6221 85.6638 44.1224 81.1373 44.1224ZM84.5832 41.8568C85.2556 40.9578 85.4236 39.831 85.4236 38.7402C85.4236 36.2588 84.247 31.5359 80.8011 31.5359C79.8766 31.5359 78.9641 31.8955 78.2917 32.4949C77.1991 33.4778 77.007 34.7125 77.007 35.9232C77.007 38.7042 78.3757 43.2833 81.7376 43.2833C82.8422 43.2833 83.9468 42.7559 84.5832 41.8568Z" fill="white"/>
<path id="Fill-6" d="M72.5525 43.2955L68.8184 44.1585C67.3055 44.3983 65.9488 44.6141 64.508 44.6141C57.304 44.6021 54.5665 39.2798 54.5665 35.1082C54.5665 30.0257 58.4566 25.3027 65.1083 25.3027C66.5131 25.3027 67.8699 25.5065 69.1065 25.8541C71.0636 26.4056 71.9761 27.0888 72.5525 27.4844L70.3793 29.5582L69.4667 29.762L70.1151 28.7191C69.2266 27.856 67.6057 26.2497 64.532 26.2497C60.4137 26.2497 57.304 29.3904 57.304 33.9814C57.304 38.9082 60.846 43.5472 66.5371 43.5472C68.206 43.5472 69.0705 43.2116 69.851 42.8999V38.6684L65.9128 38.8842L68.0019 37.7574H73.537L72.8646 38.4167C72.6845 38.5725 72.6605 38.6205 72.6005 38.8362C72.5765 39.076 72.5525 39.8312 72.5525 40.1069V43.2955Z" fill="white"/>
<path id="Fill-7_1_" d="M142.419 41.9527V49.0371H141.014V31.0204H142.419V33.0702C143.332 31.7397 145.013 30.6968 146.946 30.6968C150.428 30.6968 152.781 33.3459 152.781 37.5295C152.781 41.689 150.44 44.3861 146.946 44.3861C145.121 44.3861 143.476 43.4391 142.419 41.9527ZM151.34 37.6373C151.34 34.4488 149.695 32.0154 146.766 32.0154C144.953 32.0154 143.212 33.4538 142.455 34.7125V40.5382C143.212 41.7969 144.953 43.2833 146.766 43.2833C149.695 43.2833 151.34 40.8259 151.34 37.6373Z" fill="white"/>
<path id="Fill-8" d="M154.702 26.022H156.143V44.1226H154.702V26.022Z" fill="white"/>
<path id="Fill-9" d="M171.812 47.7905C172.112 47.9223 172.628 48.0062 172.952 48.0062C173.817 48.0062 174.405 47.6586 174.945 46.412L175.966 44.0864L170.431 30.9365H172.004L176.746 42.3363L181.453 30.9365H183.038L176.29 46.8435C175.594 48.4857 174.489 49.2769 172.976 49.2769C172.52 49.2769 171.92 49.193 171.572 49.0851L171.812 47.7905Z" fill="white"/>
<path id="Fill-10" d="M167.837 44.1104C167.741 43.6549 167.669 43.2593 167.621 42.9237C167.573 42.588 167.549 42.2524 167.549 41.9048C167.069 42.612 166.385 43.2114 165.496 43.6789C164.62 44.1464 163.779 44.3741 162.639 44.3741C161.258 44.3741 160.189 44.0385 159.433 43.3432C158.676 42.66 158.292 41.725 158.292 40.5502C158.292 39.3755 158.844 38.4165 159.949 37.6853C161.054 36.9541 162.482 36.5825 164.247 36.5825H167.537V34.9522C167.537 34.0172 167.213 33.274 166.577 32.7466C165.94 32.2072 165.04 31.9434 163.875 31.9434C162.807 31.9434 161.942 32.1952 161.282 32.6747C160.633 33.1661 160.297 33.7775 160.297 34.5087H158.856L158.832 34.4368C158.784 33.4418 159.229 32.5788 160.201 31.8236C161.162 31.0684 162.41 30.6968 163.959 30.6968C165.496 30.6968 166.745 31.0684 167.681 31.8116C168.618 32.5428 169.086 33.6097 169.086 34.9882V41.4612C169.086 41.9287 169.11 42.3723 169.17 42.8158C169.23 43.2593 169.326 43.6909 169.446 44.1104H167.837ZM162.819 43.1634C164.019 43.1634 164.884 42.8877 165.76 42.3603C166.637 41.8329 167.225 41.1376 167.537 40.2985V37.7692H164.223C162.963 37.7692 161.918 38.0449 161.09 38.6203C160.261 39.1837 159.853 39.867 159.853 40.6701C159.853 41.4253 160.117 42.0246 160.645 42.4802C161.186 42.9357 161.906 43.1634 162.819 43.1634Z" fill="white"/>
</g>
<g id="Get-it-on">
<path id="Fill-1_2_" d="M54.5664 13.8309C54.5664 11.2536 56.6315 9.5874 59.201 9.5874C60.9179 9.5874 62.0465 10.3546 62.7549 11.2896L61.4942 11.9609C61.014 11.3495 60.1855 10.87 59.201 10.87C57.46 10.87 56.1513 12.1047 56.1513 13.8309C56.1633 15.545 57.46 16.7917 59.201 16.7917C60.1015 16.7917 60.8939 16.4081 61.2901 16.0485V14.7898H58.6487V13.5192H62.827V16.5759C61.9625 17.475 60.7258 18.0743 59.201 18.0743C56.6315 18.0863 54.5664 16.4081 54.5664 13.8309Z" fill="white"/>
<path id="Fill-2_1_" d="M64.8321 17.9669V9.71973H70.9675V10.9904H66.405V13.1121H70.8715V14.3947H66.405V16.6963H70.9675V17.9669H64.8321Z" fill="white"/>
<path id="Fill-3_1_" d="M75.1339 17.9669V10.9904H72.4684V9.71973H79.3482V10.9904H76.6828V17.9669H75.1339Z" fill="white"/>
<path id="Fill-4_2_" d="M84.8593 9.71973H86.3601V17.9669H84.8593V9.71973Z" fill="white"/>
<path id="Fill-5_1_" d="M90.6585 17.9669V10.9904H87.993V9.71973H94.8729V10.9904H92.2074V17.9669H90.6585Z" fill="white"/>
<path id="Fill-6_1_" d="M100.012 13.8431C100.012 11.3977 101.897 9.59961 104.586 9.59961C107.252 9.59961 109.149 11.3977 109.149 13.8431C109.149 16.2884 107.24 18.0865 104.586 18.0865C101.897 18.0865 100.012 16.2884 100.012 13.8431ZM107.516 13.7711C107.516 12.0929 106.363 10.8343 104.574 10.8343C102.773 10.8343 101.633 12.0929 101.633 13.7711C101.633 15.4374 102.773 16.708 104.574 16.708C106.363 16.708 107.516 15.4493 107.516 13.7711Z" fill="white"/>
<path id="Fill-7_2_" d="M117.037 17.9669L112.439 12.0692V17.9669H110.89V9.71973H112.475L116.977 15.4376V9.71973H118.526V17.9669H117.037Z" fill="white"/>
</g>
</g>
</g>
</g>
</g>
</g>
</g>
</g>
<defs>
<filter id="filter0_bd_243_26330" x="-220.159" y="-301.808" width="848.319" height="474.319" filterUnits="userSpaceOnUse" color-interpolation-filters="sRGB">
<feFlood flood-opacity="0" result="BackgroundImageFix"/>
<feGaussianBlur in="BackgroundImageFix" stdDeviation="37.0797"/>
<feComposite in2="SourceAlpha" operator="in" result="effect1_backgroundBlur_243_26330"/>
<feColorMatrix in="SourceAlpha" type="matrix" values="0 0 0 0 0 0 0 0 0 0 0 0 0 0 0 0 0 0 127 0" result="hardAlpha"/>
<feOffset dy="18.5399"/>
<feGaussianBlur stdDeviation="18.5399"/>
<feComposite in2="hardAlpha" operator="out"/>
<feColorMatrix type="matrix" values="0 0 0 0 0 0 0 0 0 0 0 0 0 0 0 0 0 0 0.16 0"/>
<feBlend mode="normal" in2="effect1_backgroundBlur_243_26330" result="effect2_dropShadow_243_26330"/>
<feBlend mode="normal" in="SourceGraphic" in2="effect2_dropShadow_243_26330" result="shape"/>
</filter>
<linearGradient id="paint0_linear_243_26330" x1="1466.39" y1="272.994" x2="42.3646" y2="-552.563" gradientUnits="userSpaceOnUse">
<stop stop-color="#030012"/>
<stop offset="1" stop-color="#030012" stop-opacity="0.2"/>
</linearGradient>
<linearGradient id="paint1_linear_243_26330" x1="554" y1="98.3516" x2="-75.7377" y2="-330.761" gradientUnits="userSpaceOnUse">
<stop stop-color="white" stop-opacity="0.16"/>
<stop offset="1" stop-color="white" stop-opacity="0.04"/>
</linearGradient>
<linearGradient id="paint2_linear_243_26330" x1="538.5" y1="-222.148" x2="-132.5" y2="83.3515" gradientUnits="userSpaceOnUse">
<stop stop-color="#BDC0F1"/>
<stop offset="1" stop-color="#696EB8" stop-opacity="0"/>
</linearGradient>
<linearGradient id="paint3_linear_243_26330" x1="143.754" y1="58.5067" x2="143.754" y2="6.23004" gradientUnits="userSpaceOnUse">
<stop stop-color="#1A1A1A" stop-opacity="0.1"/>
<stop offset="0.123" stop-color="#212121" stop-opacity="0.151"/>
<stop offset="0.308" stop-color="#353535" stop-opacity="0.227"/>
<stop offset="0.532" stop-color="#575757" stop-opacity="0.318"/>
<stop offset="0.783" stop-color="#858585" stop-opacity="0.421"/>
<stop offset="1" stop-color="#B3B3B3" stop-opacity="0.51"/>
</linearGradient>
<linearGradient id="paint4_linear_243_26330" x1="23.9939" y1="23.0498" x2="35.2337" y2="39.5709" gradientUnits="userSpaceOnUse">
<stop stop-color="#FF177B"/>
<stop offset="1" stop-color="#FFEC73"/>
</linearGradient>
<linearGradient id="paint5_linear_243_26330" x1="28.7878" y1="-0.0560892" x2="8.60791" y2="42.8673" gradientUnits="userSpaceOnUse">
<stop stop-color="#064AA2"/>
<stop offset="1" stop-color="#63FFD4"/>
</linearGradient>
<linearGradient id="paint6_linear_243_26330" x1="34.913" y1="19.2017" x2="10.0319" y2="34.1104" gradientUnits="userSpaceOnUse">
<stop stop-color="#FF4521"/>
<stop offset="1" stop-color="#8A33DB"/>
</linearGradient>
<linearGradient id="paint7_linear_243_26330" x1="20.6317" y1="6.96269" x2="29.522" y2="30.1089" gradientUnits="userSpaceOnUse">
<stop stop-color="#00A3B5"/>
<stop offset="1" stop-color="#D6FFA1"/>
</linearGradient>
<clipPath id="clip0_243_26330">
<rect width="1440" height="7996.35" fill="white" transform="translate(-516 -6803)"/>
</clipPath>
<clipPath id="clip1_243_26330">
<rect width="196" height="58" fill="white" transform="translate(0 0.351562)"/>
</clipPath>
</defs>
</svg>
