<svg width="24" height="24" viewBox="0 0 24 24" fill="none" xmlns="http://www.w3.org/2000/svg">
<g id="Instagram" clip-path="url(#clip0_577_2313)">
<g id="g174">
<g id="g176">
<g id="Clip path group">
<mask id="mask0_577_2313" style="mask-type:luminance" maskUnits="userSpaceOnUse" x="0" y="0" width="24" height="25">
<g id="clipPath182">
<path id="path180" d="M0 0.00097847H24V24.001H0V0.00097847Z" fill="white"/>
</g>
</mask>
<g mask="url(#mask0_577_2313)">
<g id="g178">
<g id="g184">
<path id="path186" d="M23.062 12.0005C23.0597 12.987 23.0486 13.9736 23.0351 14.9601C23.0187 16.1503 23.0004 17.341 22.7019 18.5108C22.3889 19.7375 21.7715 20.7955 20.8111 21.5787C19.7989 22.4041 18.5756 22.8379 17.2552 22.9182C15.504 23.0247 13.752 23.0668 12 23.0627C10.248 23.0668 8.49602 23.0247 6.74482 22.9182C5.42444 22.8379 4.2011 22.4041 3.18897 21.5787C2.2285 20.7955 1.61116 19.7375 1.29813 18.5108C0.99963 17.341 0.981255 16.1503 0.964989 14.9601C0.951489 13.9736 0.940285 12.987 0.937988 12.0005C0.940285 11.014 0.951489 10.0274 0.964989 9.0409C0.981255 7.8507 0.99963 6.65998 1.29813 5.49017C1.61116 4.26345 2.2285 3.20548 3.18897 2.42225C4.2011 1.59687 5.42444 1.16304 6.74482 1.08275C8.49602 0.976246 10.248 0.934153 12 0.938278C13.752 0.934153 15.504 0.976246 17.2552 1.08275C18.5756 1.16304 19.7989 1.59687 20.8111 2.42225C21.7715 3.20548 22.3889 4.26345 22.7019 5.49017C23.0004 6.65998 23.0187 7.8507 23.0351 9.0409C23.0486 10.0274 23.0597 11.014 23.062 12.0005Z" stroke="#52525B" stroke-width="1.875" stroke-miterlimit="10"/>
</g>
<g id="g188">
<path id="path190" d="M16.875 12.0005C16.875 14.7188 14.6714 16.9224 11.9531 16.9224C9.23484 16.9224 7.03125 14.7188 7.03125 12.0005C7.03125 9.28221 9.23484 7.07861 11.9531 7.07861C14.6714 7.07861 16.875 9.28221 16.875 12.0005Z" stroke="#52525B" stroke-width="1.875" stroke-miterlimit="10"/>
</g>
<g id="g192">
<path id="path194" d="M19.875 5.67236C19.875 6.44899 19.2454 7.07861 18.4688 7.07861C17.6921 7.07861 17.0625 6.44899 17.0625 5.67236C17.0625 4.89574 17.6921 4.26611 18.4688 4.26611C19.2454 4.26611 19.875 4.89574 19.875 5.67236Z" fill="#52525B"/>
</g>
</g>
</g>
</g>
</g>
</g>
</g>
<defs>
<clipPath id="clip0_577_2313">
<rect width="24" height="24" fill="white"/>
</clipPath>
</defs>
</svg>
