<svg width="129" height="32" viewBox="0 0 129 32" fill="none" xmlns="http://www.w3.org/2000/svg">
<g clip-path="url(#clip0_555_466)">
<path d="M29.1715 11.6504H16.1452L9.17346 4.54155V2.71756C9.17346 2.07215 9.68717 1.54834 10.3201 1.54834H29.1715V11.6504ZM16.8241 9.96675H27.5202V3.23202H10.8247V3.84937L16.8241 9.96675Z" fill="#4252DA"/>
<path d="M10.8247 30.4516H0.00012207V2.39018C0.00012207 1.92249 0.367058 1.54834 0.825728 1.54834C1.2844 1.54834 1.65133 1.92249 1.65133 2.39018V28.7679H9.17352V15.4855L21.0714 27.6174L26.392 22.1922L9.17352 4.63509V2.71756C9.17352 2.07215 9.68723 1.54834 10.3202 1.54834H10.8247V3.94291L28.722 22.1922L21.0714 29.9932L10.8247 19.545V30.4516Z" fill="#4252DA"/>
</g>
<path d="M126.595 11.5682V26.8384H122.479V11.5682H126.595ZM122.222 7.58836C122.222 6.99562 122.431 6.50637 122.849 6.12062C123.267 5.73487 123.827 5.54199 124.53 5.54199C125.223 5.54199 125.779 5.73487 126.196 6.12062C126.624 6.50637 126.837 6.99562 126.837 7.58836C126.837 8.1811 126.624 8.67035 126.196 9.0561C125.779 9.44186 125.223 9.63473 124.53 9.63473C123.827 9.63473 123.267 9.44186 122.849 9.0561C122.431 8.67035 122.222 8.1811 122.222 7.58836Z" fill="#11195B"/>
<path d="M114.972 23.3948V16.5923C114.972 16.1031 114.892 15.6844 114.73 15.3363C114.569 14.9788 114.317 14.7012 113.975 14.5036C113.643 14.3061 113.211 14.2073 112.679 14.2073C112.223 14.2073 111.829 14.2872 111.497 14.4472C111.164 14.5977 110.908 14.8188 110.728 15.1105C110.547 15.3927 110.457 15.7267 110.457 16.1125H106.355C106.355 15.4633 106.507 14.847 106.811 14.2637C107.114 13.6804 107.556 13.1676 108.135 12.7254C108.714 12.2738 109.403 11.921 110.201 11.6669C111.008 11.4129 111.91 11.2859 112.907 11.2859C114.103 11.2859 115.167 11.4835 116.098 11.8786C117.028 12.2738 117.759 12.8665 118.291 13.6569C118.832 14.4472 119.103 15.4351 119.103 16.6206V23.1548C119.103 23.9922 119.155 24.679 119.26 25.2153C119.364 25.7422 119.516 26.2032 119.715 26.5984V26.8383H115.571C115.371 26.4243 115.219 25.9069 115.115 25.2859C115.02 24.6555 114.972 24.0251 114.972 23.3948ZM115.514 17.5379L115.542 19.8383H113.249C112.708 19.8383 112.237 19.8995 111.839 20.0218C111.44 20.1441 111.112 20.3181 110.856 20.544C110.599 20.7604 110.41 21.0144 110.286 21.3061C110.172 21.5977 110.115 21.9176 110.115 22.2657C110.115 22.6138 110.196 22.929 110.357 23.2113C110.519 23.4841 110.751 23.7005 111.055 23.8605C111.359 24.011 111.715 24.0863 112.124 24.0863C112.741 24.0863 113.277 23.964 113.733 23.7194C114.189 23.4747 114.54 23.1737 114.787 22.8161C115.043 22.4586 115.176 22.1199 115.186 21.8L116.268 23.5218C116.117 23.9075 115.908 24.3074 115.642 24.7214C115.385 25.1354 115.058 25.5258 114.659 25.8927C114.26 26.2503 113.781 26.5466 113.22 26.7819C112.66 27.0077 111.995 27.1206 111.226 27.1206C110.248 27.1206 109.36 26.9277 108.563 26.5419C107.774 26.1468 107.148 25.6058 106.682 24.919C106.227 24.2227 105.999 23.4324 105.999 22.548C105.999 21.7483 106.151 21.0379 106.454 20.4169C106.758 19.796 107.205 19.2738 107.793 18.8504C108.392 18.4176 109.137 18.093 110.03 17.8766C110.922 17.6508 111.957 17.5379 113.135 17.5379H115.514Z" fill="#11195B"/>
<path d="M98.3925 24.8767C98.3925 24.2746 98.6014 23.7712 99.0192 23.3666C99.4465 22.9621 100.012 22.7598 100.714 22.7598C101.417 22.7598 101.977 22.9621 102.395 23.3666C102.822 23.7712 103.036 24.2746 103.036 24.8767C103.036 25.4789 102.822 25.9822 102.395 26.3868C101.977 26.7914 101.417 26.9936 100.714 26.9936C100.012 26.9936 99.4465 26.7914 99.0192 26.3868C98.6014 25.9822 98.3925 25.4789 98.3925 24.8767Z" fill="#11195B"/>
<path d="M89.5328 27.1206C88.3363 27.1206 87.2633 26.9324 86.3137 26.5561C85.3641 26.1703 84.5569 25.6387 83.8922 24.9613C83.237 24.2839 82.7337 23.4983 82.3824 22.6044C82.031 21.7012 81.8553 20.7415 81.8553 19.7254V19.1609C81.8553 18.0036 82.0215 16.9452 82.3539 15.9855C82.6862 15.0258 83.161 14.1931 83.7783 13.4875C84.405 12.7819 85.1647 12.2409 86.0573 11.8645C86.9499 11.4788 87.9565 11.2859 89.077 11.2859C90.169 11.2859 91.1376 11.4647 91.9827 11.8222C92.8278 12.1797 93.5353 12.6878 94.105 13.3464C94.6843 14.005 95.1211 14.7953 95.4155 15.7173C95.7099 16.63 95.857 17.6461 95.857 18.7657V20.4593H83.6073V17.7496H91.826V17.4391C91.826 16.8746 91.7216 16.3712 91.5127 15.929C91.3133 15.4774 91.0094 15.1199 90.6011 14.8565C90.1927 14.593 89.6705 14.4613 89.0342 14.4613C88.493 14.4613 88.0277 14.5789 87.6383 14.8141C87.249 15.0493 86.9309 15.3786 86.684 15.802C86.4466 16.2254 86.2662 16.7241 86.1427 17.298C86.0288 17.8625 85.9718 18.4835 85.9718 19.1609V19.7254C85.9718 20.337 86.0573 20.9015 86.2282 21.419C86.4086 21.9364 86.6603 22.3833 86.9831 22.7597C87.3155 23.136 87.7143 23.4277 88.1796 23.6347C88.6544 23.8417 89.1909 23.9452 89.7892 23.9452C90.5298 23.9452 91.2183 23.804 91.8545 23.5218C92.5002 23.2301 93.0558 22.7926 93.521 22.2093L95.5152 24.3544C95.1923 24.8155 94.7508 25.2577 94.1905 25.6811C93.6397 26.1044 92.975 26.4526 92.1964 26.7254C91.4177 26.9888 90.5298 27.1206 89.5328 27.1206Z" fill="#11195B"/>
<path d="M80.0892 23.6631V26.8385H68.3807V23.6631H80.0892ZM79.8613 13.9111L70.033 26.8385H67.2839V24.4252L77.0695 11.5684H79.8613V13.9111ZM78.4084 11.5684V14.7579H67.5118V11.5684H78.4084Z" fill="#11195B"/>
<path d="M50.932 19.3585V19.0621C50.932 17.9425 51.0934 16.9122 51.4163 15.9714C51.7392 15.0211 52.2092 14.1979 52.8264 13.5016C53.4437 12.8054 54.2033 12.2644 55.1055 11.8786C56.0076 11.4835 57.0426 11.2859 58.2106 11.2859C59.3786 11.2859 60.4184 11.4835 61.33 11.8786C62.2416 12.2644 63.006 12.8054 63.6233 13.5016C64.25 14.1979 64.7248 15.0211 65.0477 15.9714C65.3705 16.9122 65.5319 17.9425 65.5319 19.0621V19.3585C65.5319 20.4687 65.3705 21.4989 65.0477 22.4492C64.7248 23.3901 64.25 24.2133 63.6233 24.919C63.006 25.6152 62.2464 26.1562 61.3443 26.5419C60.4421 26.9277 59.4071 27.1206 58.2391 27.1206C57.0711 27.1206 56.0313 26.9277 55.1197 26.5419C54.2176 26.1562 53.4532 25.6152 52.8264 24.919C52.2092 24.2133 51.7392 23.3901 51.4163 22.4492C51.0934 21.4989 50.932 20.4687 50.932 19.3585ZM55.0342 19.0621V19.3585C55.0342 19.9983 55.0912 20.5957 55.2052 21.1508C55.3191 21.7059 55.4995 22.1952 55.7464 22.6186C56.0028 23.0325 56.3352 23.3571 56.7435 23.5923C57.1518 23.8276 57.6504 23.9452 58.2391 23.9452C58.8089 23.9452 59.2979 23.8276 59.7062 23.5923C60.1145 23.3571 60.4421 23.0325 60.689 22.6186C60.9359 22.1952 61.1164 21.7059 61.2303 21.1508C61.3538 20.5957 61.4155 19.9983 61.4155 19.3585V19.0621C61.4155 18.4411 61.3538 17.8578 61.2303 17.3121C61.1164 16.757 60.9312 16.2677 60.6748 15.8444C60.4279 15.4116 60.1003 15.0729 59.692 14.8282C59.2836 14.5836 58.7899 14.4613 58.2106 14.4613C57.6314 14.4613 57.1376 14.5836 56.7293 14.8282C56.3304 15.0729 56.0028 15.4116 55.7464 15.8444C55.4995 16.2677 55.3191 16.757 55.2052 17.3121C55.0912 17.8578 55.0342 18.4411 55.0342 19.0621Z" fill="#11195B"/>
<path d="M45.505 6.29004V26.8384H41.2461V6.29004H45.505ZM51.8863 6.29004V9.60657H34.9646V6.29004H51.8863Z" fill="#11195B"/>
<defs>
<clipPath id="clip0_555_466">
<rect width="29.1714" height="28.9032" fill="white" transform="translate(0 1.54834)"/>
</clipPath>
</defs>
</svg>
