<svg width="265" height="460" viewBox="0 0 265 460" fill="none" xmlns="http://www.w3.org/2000/svg">
<path d="M164 459.753L164 411.727" stroke="#D4D4D8" stroke-width="2.5"/>
<path d="M174.344 405.844L202.623 405.844" stroke="url(#paint0_linear_577_1184)" stroke-width="2.5"/>
<path d="M69.3652 316.191L106.866 278.689" stroke="#D4D4D8" stroke-width="2.5"/>
<path d="M198.192 194.093L156.589 235.695" stroke="#E4E4E7" stroke-width="2.5"/>
<path d="M69.3652 198.194L106.866 235.695" stroke="#E4E4E7" stroke-width="2.5"/>
<path d="M133.759 336.158L154.047 356.446" stroke="#D4D4D8" stroke-width="2.5"/>
<path d="M153.884 385.557L164 410.727" stroke="#D4D4D8" stroke-width="2.5"/>
<path d="M41.622 317.567L68.1506 317.567" stroke="#D4D4D8" stroke-width="2.5"/>
<path d="M161.005 149.243L135.131 175.117" stroke="#D4D4D8" stroke-width="2.5"/>
<path d="M129.185 338.151L108.898 358.438" stroke="#D4D4D8" stroke-width="2.5"/>
<path d="M153.682 385.719L133.395 406.006" stroke="url(#paint1_linear_577_1184)" stroke-width="2.5"/>
<path d="M109 447.727L109 357.727" stroke="#D4D4D8" stroke-width="2.5"/>
<path d="M41.6221 378.4L41.6221 317.567" stroke="#D4D4D8" stroke-width="2.5"/>
<path d="M108.78 357.243L80.5005 357.243" stroke="url(#paint2_linear_577_1184)" stroke-width="2.5"/>
<path d="M67.7329 322.638L67.7329 350.918" stroke="url(#paint3_linear_577_1184)" stroke-width="2.5"/>
<path d="M102.99 0.726516L102.99 147.091" stroke="#D4D4D8" stroke-width="2.5"/>
<path d="M160.622 148.254L188.901 148.254" stroke="url(#paint4_linear_577_1184)" stroke-width="2.5"/>
<path d="M161 146.727L161 33.7266" stroke="#D4D4D8" stroke-width="2.5"/>
<path d="M153.761 385.523L153.761 357.244" stroke="#E4E4E7" stroke-width="2.5"/>
<path d="M153.761 385.523L153.761 357.244" stroke="#D4D4D8" stroke-width="2.5"/>
<path d="M153.761 357.244L182.041 357.244" stroke="url(#paint5_linear_577_1184)" stroke-width="2.5"/>
<path d="M153.761 357.244L182.041 357.244" stroke="url(#paint6_linear_577_1184)" stroke-width="2.5"/>
<path d="M103.291 150.084L75.0113 150.084" stroke="url(#paint7_linear_577_1184)" stroke-width="2.5"/>
<path d="M102.45 149.701L128.324 175.575" stroke="#D4D4D8" stroke-width="2.5"/>
<path d="M131.551 261.896L131.551 332.334" stroke="#D4D4D8" stroke-width="2.5"/>
<path d="M131.551 183.682L131.551 246.345" stroke="#D4D4D8" stroke-width="2.5"/>
<rect x="138.589" y="170.287" width="14.6365" height="14.6365" rx="7.31824" transform="rotate(90 138.589 170.287)" fill="#E4E4E7"/>
<rect x="139.046" y="329.489" width="14.6365" height="14.6365" rx="7.31824" transform="rotate(90 139.046 329.489)" fill="#E4E4E7"/>
<rect x="112.06" y="361.02" width="7.37726" height="7.37726" rx="3.68863" transform="rotate(-180 112.06 361.02)" fill="#E4E4E7"/>
<rect x="45.2817" y="321.286" width="7.37726" height="7.37726" rx="3.68863" transform="rotate(-180 45.2817 321.286)" fill="#E4E4E7"/>
<rect x="158.258" y="361.019" width="7.37726" height="7.37726" rx="3.68863" transform="rotate(-180 158.258 361.019)" fill="#E4E4E7"/>
<rect x="157.8" y="389.894" width="7.37726" height="7.37726" rx="3.68863" transform="rotate(-180 157.8 389.894)" fill="#E4E4E7"/>
<rect x="165.118" y="152.353" width="7.37726" height="7.37726" rx="3.68863" transform="rotate(-180 165.118 152.353)" fill="#E4E4E7"/>
<rect x="107.03" y="153.724" width="7.37726" height="7.37726" rx="3.68863" transform="rotate(-180 107.03 153.724)" fill="#E4E4E7"/>
<rect x="167.377" y="415.104" width="7.37726" height="7.37726" rx="3.68863" transform="rotate(-180 167.377 415.104)" fill="#D4D4D8"/>
<path d="M59.6892 257.649L105.48 257.649" stroke="#E4E4E7" stroke-width="2.5"/>
<path d="M28.523 290.884L57.6311 261.775" stroke="#E4E4E7" stroke-width="2.5"/>
<path d="M57.6308 253.139L28.5226 224.031" stroke="#E4E4E7" stroke-width="2.5"/>
<path d="M29 99.7261L29 222.726" stroke="#D4D4D8" stroke-width="2.5"/>
<path d="M28.3579 223.803L-0.000269272 223.803" stroke="url(#paint8_linear_577_1184)" stroke-width="2.5"/>
<path d="M27.4434 320.513L27.4434 292.234" stroke="url(#paint9_linear_577_1184)" stroke-width="2.5"/>
<path d="M28.7368 290.94L0.45733 290.94" stroke="url(#paint10_linear_577_1184)" stroke-width="2.5"/>
<rect x="65.6492" y="251.003" width="13.2924" height="13.2924" rx="6.6462" transform="rotate(90 65.6492 251.003)" fill="#E4E4E7"/>
<rect x="65.6492" y="251.003" width="13.2924" height="13.2924" rx="6.6462" transform="rotate(90 65.6492 251.003)" stroke="#E4E4E7" stroke-width="1.34409"/>
<rect x="32.0173" y="294.599" width="7.31824" height="7.31824" rx="3.65912" transform="rotate(-180 32.0173 294.599)" fill="#E4E4E7"/>
<rect x="31.3453" y="226.691" width="5.97415" height="5.97415" rx="2.98708" transform="rotate(-180 31.3453 226.691)" fill="#E4E4E7"/>
<rect x="31.3453" y="226.691" width="5.97415" height="5.97415" rx="2.98708" transform="rotate(-180 31.3453 226.691)" stroke="#E4E4E7" stroke-width="1.34409"/>
<path d="M203.539 257.649L157.8 257.649" stroke="#D4D4D8" stroke-width="2.5"/>
<path d="M236.306 289.968L207.198 260.86" stroke="#D4D4D8" stroke-width="2.5"/>
<path d="M207.363 253.139L236.471 224.031" stroke="#D4D4D8" stroke-width="2.5"/>
<path d="M236 82.7266L236 224.727" stroke="#D4D4D8" stroke-width="2.5"/>
<path d="M235.915 223.704L264.195 223.704" stroke="url(#paint11_linear_577_1184)" stroke-width="2.5"/>
<path d="M236.471 414.991L236.471 289.667" stroke="#D4D4D8" stroke-width="2.5"/>
<path d="M235.915 290.025L264.195 290.025" stroke="url(#paint12_linear_577_1184)" stroke-width="2.5"/>
<rect width="14.6365" height="14.6365" rx="7.31824" transform="matrix(-4.37114e-08 1 1 4.37114e-08 201.989 249.775)" fill="#E4E4E7"/>
<rect width="7.31824" height="7.31824" rx="3.65912" transform="matrix(1 0 0 -1 232.635 293.685)" fill="#E4E4E7"/>
<rect width="7.31824" height="7.31824" rx="3.65912" transform="matrix(1 0 0 -1 233.092 227.363)" fill="#E4E4E7"/>
<path d="M195.905 318.005L156.589 278.689" stroke="#E4E4E7" stroke-width="2.5"/>
<rect x="204.699" y="325.491" width="10.9774" height="10.9774" rx="5.48868" transform="rotate(-180 204.699 325.491)" fill="#D4D4D8"/>
<rect x="73.3394" y="322.746" width="10.9774" height="10.9774" rx="5.48868" transform="rotate(-180 73.3394 322.746)" fill="#E4E4E7"/>
<rect x="72.8821" y="200.992" width="10.9774" height="10.9774" rx="5.48868" transform="rotate(-180 72.8821 200.992)" fill="#D4D4D8"/>
<rect x="205.613" y="198.248" width="10.9774" height="10.9774" rx="5.48868" transform="rotate(-180 205.613 198.248)" fill="#D4D4D8"/>
<rect x="73" y="233.727" width="120" height="48" rx="8" fill="white"/>
<rect x="73" y="233.727" width="120" height="48" rx="8" stroke="url(#paint13_linear_577_1184)"/>
<g clip-path="url(#clip0_577_1184)">
<path d="M105.806 254.193H95.1755L89.4861 248.417V246.935C89.4861 246.41 89.9053 245.985 90.4218 245.985H105.806V254.193ZM95.7295 252.825H104.458V247.353H90.8336V247.854L95.7295 252.825Z" fill="#4252DA"/>
<path d="M90.8336 269.469H82V246.669C82 246.289 82.2994 245.985 82.6737 245.985C83.048 245.985 83.3475 246.289 83.3475 246.669V268.101H89.4861V257.309L99.1955 267.166L103.537 262.758L89.4861 248.493V246.935C89.4861 246.41 89.9053 245.985 90.4218 245.985H90.8336V247.93L105.439 262.758L99.1955 269.096L90.8336 260.607V269.469Z" fill="#4252DA"/>
</g>
<path d="M185.31 254.126V266.533H181.95V254.126H185.31ZM181.741 250.892C181.741 250.411 181.912 250.013 182.253 249.7C182.594 249.386 183.051 249.229 183.624 249.229C184.19 249.229 184.643 249.386 184.984 249.7C185.333 250.013 185.507 250.411 185.507 250.892C185.507 251.374 185.333 251.771 184.984 252.085C184.643 252.398 184.19 252.555 183.624 252.555C183.051 252.555 182.594 252.398 182.253 252.085C181.912 251.771 181.741 251.374 181.741 250.892Z" fill="#11195B"/>
<path d="M175.824 263.735V258.208C175.824 257.81 175.759 257.47 175.627 257.187C175.495 256.897 175.29 256.671 175.011 256.511C174.74 256.35 174.387 256.27 173.953 256.27C173.581 256.27 173.259 256.335 172.988 256.465C172.717 256.587 172.508 256.767 172.361 257.004C172.213 257.233 172.14 257.505 172.14 257.818H168.792C168.792 257.291 168.916 256.79 169.164 256.316C169.412 255.842 169.772 255.425 170.245 255.066C170.718 254.699 171.28 254.412 171.931 254.206C172.589 254 173.325 253.896 174.139 253.896C175.115 253.896 175.983 254.057 176.743 254.378C177.502 254.699 178.099 255.181 178.533 255.823C178.975 256.465 179.195 257.268 179.195 258.231V263.54C179.195 264.22 179.238 264.778 179.323 265.214C179.409 265.642 179.533 266.017 179.695 266.338V266.533H176.313C176.15 266.196 176.026 265.776 175.941 265.271C175.863 264.759 175.824 264.247 175.824 263.735ZM176.266 258.976L176.289 260.845H174.418C173.976 260.845 173.593 260.895 173.267 260.994C172.942 261.094 172.674 261.235 172.465 261.419C172.256 261.594 172.101 261.801 172 262.038C171.907 262.275 171.861 262.535 171.861 262.818C171.861 263.1 171.927 263.357 172.058 263.586C172.19 263.808 172.38 263.983 172.628 264.113C172.876 264.236 173.167 264.297 173.5 264.297C174.003 264.297 174.441 264.197 174.813 263.999C175.185 263.8 175.472 263.555 175.673 263.265C175.883 262.974 175.991 262.699 175.999 262.439L176.882 263.838C176.758 264.152 176.588 264.476 176.371 264.813C176.162 265.149 175.894 265.466 175.569 265.765C175.243 266.055 174.852 266.296 174.395 266.487C173.938 266.67 173.395 266.762 172.767 266.762C171.969 266.762 171.245 266.605 170.594 266.292C169.951 265.971 169.439 265.531 169.059 264.973C168.687 264.408 168.501 263.766 168.501 263.047C168.501 262.397 168.625 261.82 168.873 261.315C169.121 260.811 169.486 260.387 169.966 260.043C170.454 259.691 171.063 259.427 171.791 259.251C172.519 259.068 173.364 258.976 174.325 258.976H176.266Z" fill="#11195B"/>
<path d="M162.294 264.939C162.294 264.45 162.465 264.041 162.806 263.712C163.155 263.383 163.616 263.219 164.189 263.219C164.763 263.219 165.22 263.383 165.561 263.712C165.909 264.041 166.084 264.45 166.084 264.939C166.084 265.428 165.909 265.837 165.561 266.166C165.22 266.494 164.763 266.659 164.189 266.659C163.616 266.659 163.155 266.494 162.806 266.166C162.465 265.837 162.294 265.428 162.294 264.939Z" fill="#11195B"/>
<path d="M155.064 266.762C154.088 266.762 153.212 266.609 152.437 266.303C151.662 265.99 151.004 265.558 150.461 265.008C149.927 264.457 149.516 263.819 149.229 263.093C148.942 262.359 148.799 261.579 148.799 260.754V260.295C148.799 259.355 148.935 258.495 149.206 257.715C149.477 256.935 149.865 256.259 150.368 255.685C150.88 255.112 151.5 254.672 152.228 254.367C152.957 254.053 153.778 253.896 154.692 253.896C155.584 253.896 156.374 254.042 157.064 254.332C157.753 254.623 158.331 255.036 158.796 255.571C159.268 256.106 159.625 256.748 159.865 257.497C160.105 258.239 160.225 259.064 160.225 259.974V261.35H150.229V259.148H156.936V258.896C156.936 258.437 156.851 258.028 156.68 257.669C156.517 257.302 156.269 257.012 155.936 256.798C155.603 256.584 155.177 256.476 154.657 256.476C154.216 256.476 153.836 256.572 153.518 256.763C153.201 256.954 152.941 257.222 152.74 257.566C152.546 257.91 152.399 258.315 152.298 258.781C152.205 259.24 152.158 259.745 152.158 260.295V260.754C152.158 261.25 152.228 261.709 152.368 262.13C152.515 262.55 152.72 262.913 152.984 263.219C153.255 263.525 153.58 263.762 153.96 263.93C154.348 264.098 154.785 264.182 155.274 264.182C155.878 264.182 156.44 264.067 156.959 263.838C157.486 263.601 157.939 263.246 158.319 262.772L159.946 264.515C159.683 264.889 159.323 265.249 158.865 265.593C158.416 265.937 157.873 266.219 157.238 266.441C156.603 266.655 155.878 266.762 155.064 266.762Z" fill="#11195B"/>
<path d="M147.358 263.953V266.533H137.803V263.953H147.358ZM147.172 256.029L139.151 266.533H136.908V264.572L144.893 254.126H147.172V256.029ZM145.986 254.126V256.717H137.094V254.126H145.986Z" fill="#11195B"/>
<path d="M123.564 260.455V260.215C123.564 259.305 123.695 258.468 123.959 257.703C124.222 256.931 124.606 256.262 125.11 255.697C125.613 255.131 126.233 254.692 126.97 254.378C127.706 254.057 128.55 253.896 129.504 253.896C130.457 253.896 131.305 254.057 132.049 254.378C132.793 254.692 133.417 255.131 133.921 255.697C134.432 256.262 134.819 256.931 135.083 257.703C135.346 258.468 135.478 259.305 135.478 260.215V260.455C135.478 261.358 135.346 262.195 135.083 262.967C134.819 263.731 134.432 264.4 133.921 264.973C133.417 265.539 132.797 265.979 132.061 266.292C131.325 266.605 130.48 266.762 129.527 266.762C128.574 266.762 127.725 266.605 126.981 266.292C126.245 265.979 125.621 265.539 125.11 264.973C124.606 264.4 124.222 263.731 123.959 262.967C123.695 262.195 123.564 261.358 123.564 260.455ZM126.911 260.215V260.455C126.911 260.975 126.958 261.461 127.051 261.912C127.144 262.363 127.291 262.76 127.493 263.104C127.702 263.441 127.973 263.704 128.306 263.895C128.639 264.087 129.046 264.182 129.527 264.182C129.992 264.182 130.391 264.087 130.724 263.895C131.057 263.704 131.325 263.441 131.526 263.104C131.728 262.76 131.875 262.363 131.968 261.912C132.069 261.461 132.119 260.975 132.119 260.455V260.215C132.119 259.71 132.069 259.236 131.968 258.793C131.875 258.342 131.724 257.944 131.514 257.6C131.313 257.249 131.046 256.973 130.712 256.775C130.379 256.576 129.976 256.476 129.504 256.476C129.031 256.476 128.628 256.576 128.295 256.775C127.969 256.973 127.702 257.249 127.493 257.6C127.291 257.944 127.144 258.342 127.051 258.793C126.958 259.236 126.911 259.71 126.911 260.215Z" fill="#11195B"/>
<path d="M119.135 249.837V266.533H115.659V249.837H119.135ZM124.342 249.837V252.532H110.533V249.837H124.342Z" fill="#11195B"/>
<defs>
<linearGradient id="paint0_linear_577_1184" x1="174.651" y1="405.844" x2="202.623" y2="405.844" gradientUnits="userSpaceOnUse">
<stop stop-color="#E4E4E7"/>
<stop offset="1" stop-color="#E4E4E7" stop-opacity="0"/>
</linearGradient>
<linearGradient id="paint1_linear_577_1184" x1="133.748" y1="406.36" x2="154.036" y2="386.072" gradientUnits="userSpaceOnUse">
<stop stop-color="#E4E4E7" stop-opacity="0"/>
<stop offset="1" stop-color="#E4E4E7"/>
</linearGradient>
<linearGradient id="paint2_linear_577_1184" x1="108.473" y1="357.243" x2="80.5005" y2="357.243" gradientUnits="userSpaceOnUse">
<stop stop-color="#E4E4E7"/>
<stop offset="1" stop-color="#E4E4E7" stop-opacity="0"/>
</linearGradient>
<linearGradient id="paint3_linear_577_1184" x1="67.7329" y1="322.946" x2="67.7329" y2="350.918" gradientUnits="userSpaceOnUse">
<stop stop-color="#E4E4E7"/>
<stop offset="1" stop-color="#E4E4E7" stop-opacity="0"/>
</linearGradient>
<linearGradient id="paint4_linear_577_1184" x1="160.929" y1="148.254" x2="188.901" y2="148.254" gradientUnits="userSpaceOnUse">
<stop stop-color="#E4E4E7"/>
<stop offset="1" stop-color="#E4E4E7" stop-opacity="0"/>
</linearGradient>
<linearGradient id="paint5_linear_577_1184" x1="154.069" y1="357.244" x2="182.041" y2="357.244" gradientUnits="userSpaceOnUse">
<stop stop-color="#E4E4E7"/>
<stop offset="1" stop-color="#E4E4E7" stop-opacity="0"/>
</linearGradient>
<linearGradient id="paint6_linear_577_1184" x1="154.069" y1="357.244" x2="182.041" y2="357.244" gradientUnits="userSpaceOnUse">
<stop stop-color="#E4E4E7"/>
<stop offset="1" stop-color="#E4E4E7" stop-opacity="0"/>
</linearGradient>
<linearGradient id="paint7_linear_577_1184" x1="102.983" y1="150.084" x2="75.0113" y2="150.084" gradientUnits="userSpaceOnUse">
<stop stop-color="#E4E4E7"/>
<stop offset="1" stop-color="#E4E4E7" stop-opacity="0"/>
</linearGradient>
<linearGradient id="paint8_linear_577_1184" x1="28.0497" y1="223.803" x2="-0.000270825" y2="223.803" gradientUnits="userSpaceOnUse">
<stop stop-color="#E4E4E7"/>
<stop offset="1" stop-color="#E4E4E7" stop-opacity="0"/>
</linearGradient>
<linearGradient id="paint9_linear_577_1184" x1="26.9434" y1="292.234" x2="26.9434" y2="320.513" gradientUnits="userSpaceOnUse">
<stop stop-color="#E4E4E7"/>
<stop offset="1" stop-color="#E4E4E7" stop-opacity="0"/>
</linearGradient>
<linearGradient id="paint10_linear_577_1184" x1="28.4294" y1="290.94" x2="0.457329" y2="290.94" gradientUnits="userSpaceOnUse">
<stop stop-color="#E4E4E7"/>
<stop offset="1" stop-color="#E4E4E7" stop-opacity="0"/>
</linearGradient>
<linearGradient id="paint11_linear_577_1184" x1="236.222" y1="223.704" x2="264.195" y2="223.704" gradientUnits="userSpaceOnUse">
<stop stop-color="#E4E4E7"/>
<stop offset="1" stop-color="#E4E4E7" stop-opacity="0"/>
</linearGradient>
<linearGradient id="paint12_linear_577_1184" x1="236.222" y1="290.025" x2="264.195" y2="290.025" gradientUnits="userSpaceOnUse">
<stop stop-color="#E4E4E7"/>
<stop offset="1" stop-color="#E4E4E7" stop-opacity="0"/>
</linearGradient>
<linearGradient id="paint13_linear_577_1184" x1="73" y1="257.727" x2="190.782" y2="258.143" gradientUnits="userSpaceOnUse">
<stop stop-color="#4251DA"/>
<stop offset="1" stop-color="#00ADEF"/>
</linearGradient>
<clipPath id="clip0_577_1184">
<rect width="23.8057" height="23.4839" fill="white" transform="translate(82 245.985)"/>
</clipPath>
</defs>
</svg>
