<svg width="1418" height="806" viewBox="0 0 1418 806" fill="none" xmlns="http://www.w3.org/2000/svg">
<rect width="1440" height="806" transform="translate(-22)" fill="white"/>
<g clip-path="url(#clip0_9_8965)">
<path d="M1127 356H1022" stroke="#D4D4D8" stroke-width="2.5"/>
<path d="M1022 355.828L1022 294" stroke="url(#paint0_linear_9_8965)" stroke-width="2.5"/>
<rect x="-22" y="27" width="1440" height="836" fill="url(#paint1_linear_9_8965)"/>
<path d="M825.989 585.344L744 503.354" stroke="#D4D4D8" stroke-width="2.5"/>
<path d="M559.044 303.688L650 394.645" stroke="#E4E4E7" stroke-width="2.5"/>
<path d="M568.011 585.344L650 503.354" stroke="#E4E4E7" stroke-width="2.5"/>
<path d="M869.645 444.558L914 400.203" stroke="#D4D4D8" stroke-width="2.5"/>
<path d="M977.645 400.558L1022 356.203" stroke="#D4D4D8" stroke-width="2.5"/>
<path d="M829 646L829 588" stroke="#D4D4D8" stroke-width="2.5"/>
<path d="M460.99 384.99L517.559 441.559" stroke="#D4D4D8" stroke-width="2.5"/>
<path d="M874 454.559L918.355 498.914" stroke="#D4D4D8" stroke-width="2.5"/>
<path d="M978 401L1022.35 445.354" stroke="url(#paint2_linear_9_8965)" stroke-width="2.5"/>
<path d="M962 646H829" stroke="#D4D4D8" stroke-width="2.5"/>
<path d="M915.744 499.172L915.744 561" stroke="url(#paint3_linear_9_8965)" stroke-width="2.5"/>
<path d="M840.086 588.914L901.914 588.914" stroke="url(#paint4_linear_9_8965)" stroke-width="2.5"/>
<path d="M136.284 511.829L456.284 511.829" stroke="#D4D4D8" stroke-width="2.5"/>
<path d="M458.827 385.828L458.827 324" stroke="url(#paint5_linear_9_8965)" stroke-width="2.5"/>
<path d="M456 384L324 384" stroke="#D4D4D8" stroke-width="2.5"/>
<path d="M977.572 400.828L915.744 400.828" stroke="#E4E4E7" stroke-width="2.5"/>
<path d="M977.572 400.828L915.744 400.828" stroke="#D4D4D8" stroke-width="2.5"/>
<path d="M915.744 400.828L915.744 339" stroke="url(#paint6_linear_9_8965)" stroke-width="2.5"/>
<path d="M915.744 400.828L915.744 339" stroke="url(#paint7_linear_9_8965)" stroke-width="2.5"/>
<path d="M462.828 511.172L462.828 573" stroke="url(#paint8_linear_9_8965)" stroke-width="2.5"/>
<path d="M461.99 513.009L518.559 456.44" stroke="#D4D4D8" stroke-width="2.5"/>
<path d="M818.43 449H861.44" stroke="#D4D4D8" stroke-width="2.5"/>
<path d="M536.128 449H579.139" stroke="#D4D4D8" stroke-width="2.5"/>
<rect x="507" y="433.999" width="32" height="32" rx="16" fill="#E4E4E7"/>
<rect x="855.065" y="432.999" width="32" height="32" rx="16" fill="#E4E4E7"/>
<rect x="924" y="492" width="16.129" height="16.129" rx="8.06452" transform="rotate(90 924 492)" fill="#E4E4E7"/>
<rect x="837.129" y="638" width="16.129" height="16.129" rx="8.06452" transform="rotate(90 837.129 638)" fill="#E4E4E7"/>
<rect x="924" y="391" width="16.129" height="16.129" rx="8.06452" transform="rotate(90 924 391)" fill="#E4E4E7"/>
<rect x="987.129" y="392" width="16.129" height="16.129" rx="8.06452" transform="rotate(90 987.129 392)" fill="#E4E4E7"/>
<rect x="467.788" y="376" width="16.129" height="16.129" rx="8.06452" transform="rotate(90 467.788 376)" fill="#E4E4E7"/>
<rect x="470.786" y="503" width="16.129" height="16.129" rx="8.06452" transform="rotate(90 470.786 503)" fill="#E4E4E7"/>
<rect x="1030.13" y="348" width="16.129" height="16.129" rx="8.06452" transform="rotate(90 1030.13 348)" fill="#D4D4D8"/>
<path d="M698 606.5V506.387" stroke="#E4E4E7" stroke-width="2.5"/>
<path d="M770.66 674.64L707.021 611" stroke="#E4E4E7" stroke-width="2.5"/>
<path d="M688.139 611L624.499 674.64" stroke="#E4E4E7" stroke-width="2.5"/>
<path d="M222 674L622 674" stroke="#D4D4D8" stroke-width="2.5"/>
<path d="M624 675L624 737" stroke="url(#paint9_linear_9_8965)" stroke-width="2.5"/>
<path d="M835.44 677L773.612 677" stroke="url(#paint10_linear_9_8965)" stroke-width="2.5"/>
<path d="M770.785 674.172L770.785 736" stroke="url(#paint11_linear_9_8965)" stroke-width="2.5"/>
<rect x="682.672" y="592.672" width="30.6559" height="30.6559" rx="15.328" fill="#E4E4E7"/>
<rect x="682.672" y="592.672" width="30.6559" height="30.6559" rx="15.328" stroke="#E4E4E7" stroke-width="1.34409"/>
<rect x="778.785" y="667" width="16" height="16" rx="8" transform="rotate(90 778.785 667)" fill="#E4E4E7"/>
<rect x="631.113" y="667.672" width="14.6559" height="14.6559" rx="7.32796" transform="rotate(90 631.113 667.672)" fill="#E4E4E7"/>
<rect x="631.113" y="667.672" width="14.6559" height="14.6559" rx="7.32796" transform="rotate(90 631.113 667.672)" stroke="#E4E4E7" stroke-width="1.34409"/>
<path d="M698 291.999V391.999" stroke="#D4D4D8" stroke-width="2.5"/>
<path d="M768.661 220.36L705.021 284" stroke="#D4D4D8" stroke-width="2.5"/>
<path d="M688.139 283.64L624.5 220" stroke="#D4D4D8" stroke-width="2.5"/>
<path d="M197.285 220.387L624.955 220.387" stroke="#D4D4D8" stroke-width="2.5"/>
<path d="M623.785 221.214V159.386" stroke="url(#paint12_linear_9_8965)" stroke-width="2.5"/>
<path d="M1042 220L768 220" stroke="#D4D4D8" stroke-width="2.5"/>
<path d="M768.785 221.214L768.785 159.386" stroke="url(#paint13_linear_9_8965)" stroke-width="2.5"/>
<rect width="32" height="32" rx="16" transform="matrix(1 0 0 -1 680.785 295.387)" fill="#E4E4E7"/>
<rect width="16" height="16" rx="8" transform="matrix(-4.37114e-08 -1 -1 4.37114e-08 776.785 228.387)" fill="#E4E4E7"/>
<rect width="16" height="16" rx="8" transform="matrix(-4.37114e-08 -1 -1 4.37114e-08 631.785 227.387)" fill="#E4E4E7"/>
<path d="M829.958 308.687L744 394.645" stroke="#E4E4E7" stroke-width="2.5"/>
<rect x="846.323" y="289.462" width="24" height="24" rx="12" transform="rotate(90 846.323 289.462)" fill="#D4D4D8"/>
<rect x="840.323" y="576.656" width="24" height="24" rx="12" transform="rotate(90 840.323 576.656)" fill="#E4E4E7"/>
<rect x="574.129" y="577.656" width="24" height="24" rx="12" transform="rotate(90 574.129 577.656)" fill="#D4D4D8"/>
<rect x="568.129" y="287.462" width="24" height="24" rx="12" transform="rotate(90 568.129 287.462)" fill="#D4D4D8"/>
<rect x="566" y="389" width="264" height="120" rx="8" fill="white"/>
<rect x="566" y="389" width="264" height="120" rx="8" stroke="url(#paint14_linear_9_8965)" stroke-width="2.5"/>
<g clip-path="url(#clip1_9_8965)">
<path d="M652.287 443.291H635.19L626.04 433.961V431.567C626.04 430.72 626.714 430.032 627.545 430.032H652.287V443.291ZM636.081 441.081H650.12V432.242H628.207V433.052L636.081 441.081Z" fill="#4252DA"/>
<path d="M628.207 467.968H614V431.137C614 430.523 614.482 430.032 615.084 430.032C615.686 430.032 616.167 430.523 616.167 431.137V465.758H626.04V448.325L641.656 464.248L648.639 457.127L626.04 434.084V431.567C626.04 430.72 626.714 430.032 627.545 430.032H628.207V433.175L651.698 457.127L641.656 467.366L628.207 453.653V467.968Z" fill="#4252DA"/>
</g>
<path d="M780.156 443.184V463.226H774.754V443.184H780.156ZM774.417 437.96C774.417 437.182 774.691 436.54 775.24 436.034C775.788 435.528 776.523 435.274 777.446 435.274C778.355 435.274 779.085 435.528 779.633 436.034C780.194 436.54 780.474 437.182 780.474 437.96C780.474 438.738 780.194 439.38 779.633 439.887C779.085 440.393 778.355 440.646 777.446 440.646C776.523 440.646 775.788 440.393 775.24 439.887C774.691 439.38 774.417 438.738 774.417 437.96Z" fill="#11195B"/>
<path d="M764.901 458.706V449.778C764.901 449.136 764.795 448.587 764.584 448.13C764.372 447.66 764.041 447.296 763.593 447.037C763.157 446.777 762.589 446.648 761.892 446.648C761.293 446.648 760.776 446.753 760.34 446.963C759.904 447.16 759.567 447.45 759.33 447.833C759.093 448.204 758.975 448.642 758.975 449.148H753.591C753.591 448.296 753.79 447.487 754.189 446.722C754.588 445.956 755.168 445.283 755.928 444.703C756.688 444.11 757.592 443.647 758.639 443.314C759.698 442.98 760.882 442.813 762.191 442.813C763.761 442.813 765.157 443.073 766.378 443.591C767.6 444.11 768.559 444.888 769.257 445.925C769.968 446.963 770.323 448.259 770.323 449.815V458.391C770.323 459.491 770.392 460.392 770.529 461.096C770.666 461.787 770.865 462.392 771.127 462.911V463.226H765.687C765.425 462.683 765.225 462.003 765.088 461.188C764.964 460.361 764.901 459.534 764.901 458.706ZM765.612 451.019L765.649 454.039H762.639C761.929 454.039 761.312 454.119 760.789 454.279C760.265 454.44 759.835 454.668 759.499 454.965C759.162 455.249 758.913 455.582 758.751 455.965C758.601 456.348 758.526 456.768 758.526 457.225C758.526 457.681 758.632 458.095 758.844 458.466C759.056 458.824 759.361 459.108 759.76 459.318C760.159 459.515 760.626 459.614 761.162 459.614C761.973 459.614 762.677 459.453 763.275 459.132C763.873 458.811 764.334 458.416 764.658 457.947C764.995 457.478 765.169 457.033 765.182 456.613L766.603 458.873C766.403 459.379 766.129 459.904 765.78 460.448C765.444 460.991 765.014 461.503 764.49 461.985C763.967 462.454 763.337 462.843 762.602 463.152C761.867 463.448 760.994 463.596 759.985 463.596C758.701 463.596 757.536 463.343 756.489 462.837C755.454 462.318 754.632 461.608 754.021 460.707C753.423 459.793 753.124 458.756 753.124 457.595C753.124 456.545 753.323 455.613 753.722 454.798C754.121 453.983 754.706 453.298 755.479 452.742C756.264 452.174 757.243 451.748 758.414 451.464C759.586 451.167 760.944 451.019 762.49 451.019H765.612Z" fill="#11195B"/>
<path d="M743.14 460.652C743.14 459.861 743.414 459.201 743.963 458.67C744.524 458.139 745.265 457.873 746.187 457.873C747.11 457.873 747.845 458.139 748.393 458.67C748.954 459.201 749.235 459.861 749.235 460.652C749.235 461.442 748.954 462.103 748.393 462.634C747.845 463.165 747.11 463.43 746.187 463.43C745.265 463.43 744.524 463.165 743.963 462.634C743.414 462.103 743.14 461.442 743.14 460.652Z" fill="#11195B"/>
<path d="M731.512 463.596C729.941 463.596 728.533 463.35 727.287 462.856C726.04 462.349 724.981 461.652 724.108 460.762C723.248 459.873 722.588 458.842 722.127 457.669C721.666 456.484 721.435 455.224 721.435 453.89V453.149C721.435 451.631 721.653 450.241 722.089 448.982C722.526 447.722 723.149 446.629 723.959 445.703C724.781 444.777 725.779 444.067 726.95 443.573C728.122 443.067 729.443 442.813 730.913 442.813C732.347 442.813 733.618 443.048 734.727 443.517C735.836 443.987 736.765 444.653 737.513 445.518C738.273 446.382 738.846 447.42 739.233 448.63C739.619 449.828 739.812 451.161 739.812 452.631V454.854H723.735V451.297H734.522V450.89C734.522 450.149 734.384 449.488 734.11 448.908C733.849 448.315 733.45 447.846 732.914 447.5C732.378 447.154 731.692 446.981 730.857 446.981C730.147 446.981 729.536 447.136 729.025 447.444C728.514 447.753 728.097 448.185 727.773 448.741C727.461 449.297 727.224 449.951 727.062 450.704C726.913 451.445 726.838 452.26 726.838 453.149V453.89C726.838 454.693 726.95 455.434 727.174 456.113C727.411 456.792 727.742 457.379 728.165 457.873C728.601 458.367 729.125 458.75 729.736 459.021C730.359 459.293 731.063 459.429 731.848 459.429C732.82 459.429 733.724 459.244 734.559 458.873C735.406 458.49 736.136 457.916 736.746 457.15L739.364 459.966C738.94 460.571 738.36 461.151 737.625 461.707C736.902 462.263 736.03 462.72 735.008 463.078C733.986 463.424 732.82 463.596 731.512 463.596Z" fill="#11195B"/>
<path d="M719.117 459.058V463.226H703.75V459.058H719.117ZM718.818 446.258L705.918 463.226H702.31V460.058L715.154 443.184H718.818V446.258ZM716.911 443.184V447.37H702.609V443.184H716.911Z" fill="#11195B"/>
<path d="M680.848 453.409V453.02C680.848 451.55 681.06 450.198 681.484 448.963C681.908 447.716 682.524 446.635 683.335 445.722C684.145 444.808 685.142 444.098 686.326 443.591C687.51 443.073 688.868 442.813 690.401 442.813C691.934 442.813 693.299 443.073 694.496 443.591C695.692 444.098 696.695 444.808 697.505 445.722C698.328 446.635 698.951 447.716 699.375 448.963C699.799 450.198 700.011 451.55 700.011 453.02V453.409C700.011 454.866 699.799 456.218 699.375 457.465C698.951 458.7 698.328 459.781 697.505 460.707C696.695 461.621 695.698 462.331 694.514 462.837C693.33 463.343 691.972 463.596 690.439 463.596C688.906 463.596 687.541 463.343 686.344 462.837C685.16 462.331 684.157 461.621 683.335 460.707C682.524 459.781 681.908 458.7 681.484 457.465C681.06 456.218 680.848 454.866 680.848 453.409ZM686.232 453.02V453.409C686.232 454.248 686.307 455.033 686.457 455.761C686.606 456.49 686.843 457.132 687.167 457.688C687.504 458.231 687.94 458.657 688.476 458.966C689.012 459.274 689.666 459.429 690.439 459.429C691.187 459.429 691.828 459.274 692.364 458.966C692.9 458.657 693.33 458.231 693.654 457.688C693.978 457.132 694.215 456.49 694.365 455.761C694.527 455.033 694.608 454.248 694.608 453.409V453.02C694.608 452.205 694.527 451.439 694.365 450.723C694.215 449.994 693.972 449.352 693.636 448.796C693.312 448.228 692.882 447.784 692.346 447.463C691.81 447.142 691.162 446.981 690.401 446.981C689.641 446.981 688.993 447.142 688.457 447.463C687.934 447.784 687.504 448.228 687.167 448.796C686.843 449.352 686.606 449.994 686.457 450.723C686.307 451.439 686.232 452.205 686.232 453.02Z" fill="#11195B"/>
<path d="M673.725 436.256V463.226H668.136V436.256H673.725ZM682.101 436.256V440.609H659.891V436.256H682.101Z" fill="#11195B"/>
</g>
<path d="M923 499.648L1243 499.648" stroke="#D4D4D8" stroke-width="2.5"/>
<defs>
<linearGradient id="paint0_linear_9_8965" x1="1022" y1="355.156" x2="1022" y2="294" gradientUnits="userSpaceOnUse">
<stop stop-color="#E4E4E7"/>
<stop offset="1" stop-color="#E4E4E7" stop-opacity="0"/>
</linearGradient>
<linearGradient id="paint1_linear_9_8965" x1="698" y1="27" x2="698" y2="863" gradientUnits="userSpaceOnUse">
<stop stop-color="white"/>
<stop offset="0.483523" stop-color="white" stop-opacity="0"/>
<stop offset="1" stop-color="white"/>
</linearGradient>
<linearGradient id="paint2_linear_9_8965" x1="1022.71" y1="445.001" x2="978.353" y2="400.646" gradientUnits="userSpaceOnUse">
<stop stop-color="#E4E4E7" stop-opacity="0"/>
<stop offset="1" stop-color="#E4E4E7"/>
</linearGradient>
<linearGradient id="paint3_linear_9_8965" x1="915.744" y1="499.844" x2="915.744" y2="561" gradientUnits="userSpaceOnUse">
<stop stop-color="#E4E4E7"/>
<stop offset="1" stop-color="#E4E4E7" stop-opacity="0"/>
</linearGradient>
<linearGradient id="paint4_linear_9_8965" x1="840.758" y1="588.914" x2="901.914" y2="588.914" gradientUnits="userSpaceOnUse">
<stop stop-color="#E4E4E7"/>
<stop offset="1" stop-color="#E4E4E7" stop-opacity="0"/>
</linearGradient>
<linearGradient id="paint5_linear_9_8965" x1="458.827" y1="385.156" x2="458.827" y2="324" gradientUnits="userSpaceOnUse">
<stop stop-color="#E4E4E7"/>
<stop offset="1" stop-color="#E4E4E7" stop-opacity="0"/>
</linearGradient>
<linearGradient id="paint6_linear_9_8965" x1="915.744" y1="400.156" x2="915.744" y2="339" gradientUnits="userSpaceOnUse">
<stop stop-color="#E4E4E7"/>
<stop offset="1" stop-color="#E4E4E7" stop-opacity="0"/>
</linearGradient>
<linearGradient id="paint7_linear_9_8965" x1="915.744" y1="400.156" x2="915.744" y2="339" gradientUnits="userSpaceOnUse">
<stop stop-color="#E4E4E7"/>
<stop offset="1" stop-color="#E4E4E7" stop-opacity="0"/>
</linearGradient>
<linearGradient id="paint8_linear_9_8965" x1="462.828" y1="511.844" x2="462.828" y2="573" gradientUnits="userSpaceOnUse">
<stop stop-color="#E4E4E7"/>
<stop offset="1" stop-color="#E4E4E7" stop-opacity="0"/>
</linearGradient>
<linearGradient id="paint9_linear_9_8965" x1="624" y1="675.674" x2="624" y2="737" gradientUnits="userSpaceOnUse">
<stop stop-color="#E4E4E7"/>
<stop offset="1" stop-color="#E4E4E7" stop-opacity="0"/>
</linearGradient>
<linearGradient id="paint10_linear_9_8965" x1="773.612" y1="677.5" x2="835.44" y2="677.5" gradientUnits="userSpaceOnUse">
<stop stop-color="#E4E4E7"/>
<stop offset="1" stop-color="#E4E4E7" stop-opacity="0"/>
</linearGradient>
<linearGradient id="paint11_linear_9_8965" x1="770.785" y1="674.844" x2="770.785" y2="736" gradientUnits="userSpaceOnUse">
<stop stop-color="#E4E4E7"/>
<stop offset="1" stop-color="#E4E4E7" stop-opacity="0"/>
</linearGradient>
<linearGradient id="paint12_linear_9_8965" x1="623.785" y1="220.542" x2="623.785" y2="159.386" gradientUnits="userSpaceOnUse">
<stop stop-color="#E4E4E7"/>
<stop offset="1" stop-color="#E4E4E7" stop-opacity="0"/>
</linearGradient>
<linearGradient id="paint13_linear_9_8965" x1="768.785" y1="220.542" x2="768.785" y2="159.386" gradientUnits="userSpaceOnUse">
<stop stop-color="#E4E4E7"/>
<stop offset="1" stop-color="#E4E4E7" stop-opacity="0"/>
</linearGradient>
<linearGradient id="paint14_linear_9_8965" x1="566" y1="449" x2="825.122" y2="449.807" gradientUnits="userSpaceOnUse">
<stop stop-color="#4251DA"/>
<stop offset="1" stop-color="#00ADEF"/>
</linearGradient>
<clipPath id="clip0_9_8965">
<rect width="1440" height="706" fill="white" transform="translate(-22 100)"/>
</clipPath>
<clipPath id="clip1_9_8965">
<rect width="38.2874" height="37.9355" fill="white" transform="translate(614 430.032)"/>
</clipPath>
</defs>
</svg>
