<svg width="268" height="123" viewBox="0 0 268 123" fill="none" xmlns="http://www.w3.org/2000/svg">
<rect x="2" y="1.35156" width="264" height="120" rx="8" fill="white"/>
<rect x="2" y="1.35156" width="264" height="120" rx="8" stroke="url(#paint0_linear_577_2058)" stroke-width="2.5"/>
<g clip-path="url(#clip0_577_2058)">
<path d="M88.2875 55.6428H71.1906L62.0402 46.3124V43.9184C62.0402 43.0713 62.7144 42.3838 63.5452 42.3838H88.2875V55.6428ZM72.0816 53.433H86.1203V44.5936H64.2074V45.4039L72.0816 53.433Z" fill="#4252DA"/>
<path d="M64.2074 80.3193H50.0001V43.4887C50.0001 42.8749 50.4817 42.3838 51.0837 42.3838C51.6857 42.3838 52.1673 42.8749 52.1673 43.4887V78.1094H62.0402V60.6763L77.6562 76.5994L84.6394 69.4788L62.0402 46.4352V43.9184C62.0402 43.0713 62.7145 42.3838 63.5452 42.3838H64.2074V45.5267L87.6976 69.4788L77.6562 79.7177L64.2074 66.0045V80.3193Z" fill="#4252DA"/>
</g>
<path d="M216.156 55.5354V75.5775H210.753V55.5354H216.156ZM210.417 50.3118C210.417 49.5339 210.691 48.8917 211.239 48.3854C211.788 47.8791 212.523 47.626 213.445 47.626C214.355 47.626 215.084 47.8791 215.633 48.3854C216.194 48.8917 216.474 49.5339 216.474 50.3118C216.474 51.0898 216.194 51.7319 215.633 52.2382C215.084 52.7446 214.355 52.9977 213.445 52.9977C212.523 52.9977 211.788 52.7446 211.239 52.2382C210.691 51.7319 210.417 51.0898 210.417 50.3118Z" fill="#11195B"/>
<path d="M200.901 71.0577V62.1295C200.901 61.4874 200.795 60.9379 200.583 60.4809C200.371 60.0117 200.041 59.6474 199.592 59.3881C199.156 59.1288 198.589 58.9991 197.891 58.9991C197.293 58.9991 196.776 59.1041 196.339 59.314C195.903 59.5116 195.567 59.8018 195.33 60.1846C195.093 60.555 194.975 60.9934 194.975 61.4997H189.59C189.59 60.6477 189.79 59.8388 190.189 59.0732C190.587 58.3076 191.167 57.6346 191.927 57.0542C192.688 56.4614 193.591 55.9983 194.638 55.6649C195.697 55.3315 196.881 55.1648 198.19 55.1648C199.761 55.1648 201.156 55.4241 202.378 55.9428C203.599 56.4614 204.559 57.2394 205.257 58.2767C205.967 59.314 206.322 60.6106 206.322 62.1666V70.7428C206.322 71.8418 206.391 72.7433 206.528 73.4472C206.665 74.1387 206.865 74.7438 207.126 75.2625V75.5773H201.686C201.424 75.034 201.225 74.3548 201.088 73.5398C200.963 72.7124 200.901 71.8851 200.901 71.0577ZM201.611 63.3706L201.649 66.3898H198.639C197.928 66.3898 197.311 66.4701 196.788 66.6306C196.265 66.7912 195.835 67.0196 195.498 67.316C195.162 67.6 194.912 67.9334 194.75 68.3163C194.601 68.6991 194.526 69.1189 194.526 69.5758C194.526 70.0327 194.632 70.4464 194.844 70.8169C195.056 71.175 195.361 71.459 195.76 71.669C196.159 71.8665 196.626 71.9653 197.162 71.9653C197.972 71.9653 198.676 71.8048 199.274 71.4837C199.873 71.1627 200.334 70.7675 200.658 70.2982C200.994 69.829 201.169 69.3844 201.181 68.9646L202.602 71.2244C202.403 71.7307 202.129 72.2555 201.78 72.7989C201.443 73.3422 201.013 73.8547 200.49 74.3363C199.966 74.8055 199.337 75.1945 198.601 75.5033C197.866 75.7996 196.994 75.9478 195.984 75.9478C194.7 75.9478 193.535 75.6947 192.488 75.1884C191.454 74.6697 190.631 73.9597 190.02 73.0582C189.422 72.1444 189.123 71.1071 189.123 69.9463C189.123 68.8967 189.322 67.9643 189.721 67.1493C190.12 66.3343 190.706 65.6489 191.479 65.0932C192.264 64.5252 193.242 64.0991 194.414 63.8151C195.585 63.5188 196.944 63.3706 198.489 63.3706H201.611Z" fill="#11195B"/>
<path d="M179.14 73.0028C179.14 72.2125 179.414 71.5519 179.962 71.0209C180.523 70.4899 181.265 70.2244 182.187 70.2244C183.109 70.2244 183.845 70.4899 184.393 71.0209C184.954 71.5519 185.234 72.2125 185.234 73.0028C185.234 73.7932 184.954 74.4538 184.393 74.9848C183.845 75.5158 183.109 75.7813 182.187 75.7813C181.265 75.7813 180.523 75.5158 179.962 74.9848C179.414 74.4538 179.14 73.7932 179.14 73.0028Z" fill="#11195B"/>
<path d="M167.512 75.9478C165.941 75.9478 164.533 75.7008 163.287 75.2069C162.04 74.7006 160.981 74.0029 160.108 73.1138C159.248 72.2247 158.588 71.1935 158.127 70.0204C157.666 68.8349 157.435 67.5753 157.435 66.2417V65.5007C157.435 63.9818 157.653 62.5926 158.089 61.333C158.526 60.0734 159.149 58.9806 159.959 58.0544C160.781 57.1283 161.779 56.4182 162.95 55.9242C164.122 55.4179 165.443 55.1648 166.913 55.1648C168.347 55.1648 169.618 55.3994 170.727 55.8687C171.836 56.3379 172.765 57.0048 173.513 57.8692C174.273 58.7336 174.846 59.7709 175.233 60.9811C175.619 62.1789 175.812 63.5126 175.812 64.9821V67.2049H159.735V63.6484H170.522V63.2409C170.522 62.5 170.384 61.8393 170.11 61.2589C169.849 60.6662 169.45 60.1969 168.914 59.8512C168.378 59.5054 167.692 59.3325 166.857 59.3325C166.147 59.3325 165.536 59.4869 165.025 59.7956C164.514 60.1043 164.097 60.5365 163.773 61.0922C163.461 61.6479 163.224 62.3024 163.062 63.0557C162.913 63.7966 162.838 64.6116 162.838 65.5007V66.2417C162.838 67.0443 162.95 67.7853 163.174 68.4644C163.411 69.1436 163.742 69.7302 164.165 70.2241C164.601 70.7181 165.125 71.1009 165.736 71.3726C166.359 71.6443 167.063 71.7801 167.848 71.7801C168.82 71.7801 169.724 71.5949 170.559 71.2244C171.406 70.8416 172.136 70.2674 172.746 69.5017L175.364 72.3173C174.94 72.9224 174.36 73.5028 173.625 74.0584C172.902 74.6141 172.03 75.071 171.008 75.4292C169.986 75.7749 168.82 75.9478 167.512 75.9478Z" fill="#11195B"/>
<path d="M155.117 71.4098V75.5775H139.749V71.4098H155.117ZM154.818 58.6102L141.918 75.5775H138.31V72.41L151.153 55.5354H154.818V58.6102ZM152.911 55.5354V59.7216H138.609V55.5354H152.911Z" fill="#11195B"/>
<path d="M116.848 65.7601V65.3711C116.848 63.9016 117.06 62.5494 117.484 61.3145C117.908 60.0673 118.524 58.9867 119.335 58.0729C120.145 57.1591 121.142 56.4491 122.326 55.9428C123.51 55.4241 124.868 55.1648 126.401 55.1648C127.934 55.1648 129.299 55.4241 130.496 55.9428C131.692 56.4491 132.695 57.1591 133.505 58.0729C134.328 58.9867 134.951 60.0673 135.375 61.3145C135.799 62.5494 136.011 63.9016 136.011 65.3711V65.7601C136.011 67.2172 135.799 68.5694 135.375 69.8166C134.951 71.0515 134.328 72.132 133.505 73.0582C132.695 73.972 131.698 74.6821 130.514 75.1884C129.33 75.6947 127.972 75.9478 126.439 75.9478C124.906 75.9478 123.541 75.6947 122.344 75.1884C121.16 74.6821 120.157 73.972 119.335 73.0582C118.524 72.132 117.908 71.0515 117.484 69.8166C117.06 68.5694 116.848 67.2172 116.848 65.7601ZM122.232 65.3711V65.7601C122.232 66.5998 122.307 67.3839 122.457 68.1125C122.606 68.8411 122.843 69.4832 123.167 70.0389C123.504 70.5823 123.94 71.0083 124.476 71.317C125.012 71.6257 125.666 71.7801 126.439 71.7801C127.187 71.7801 127.828 71.6257 128.364 71.317C128.9 71.0083 129.33 70.5823 129.654 70.0389C129.978 69.4832 130.215 68.8411 130.365 68.1125C130.527 67.3839 130.608 66.5998 130.608 65.7601V65.3711C130.608 64.5561 130.527 63.7904 130.365 63.0742C130.215 62.3456 129.972 61.7035 129.636 61.1478C129.312 60.5797 128.882 60.1352 128.346 59.8141C127.81 59.493 127.162 59.3325 126.401 59.3325C125.641 59.3325 124.993 59.493 124.457 59.8141C123.934 60.1352 123.504 60.5797 123.167 61.1478C122.843 61.7035 122.606 62.3456 122.457 63.0742C122.307 63.7904 122.232 64.5561 122.232 65.3711Z" fill="#11195B"/>
<path d="M109.725 48.6077V75.5774H104.135V48.6077H109.725ZM118.101 48.6077V52.9606H95.8909V48.6077H118.101Z" fill="#11195B"/>
<defs>
<linearGradient id="paint0_linear_577_2058" x1="2" y1="61.3516" x2="261.122" y2="62.1585" gradientUnits="userSpaceOnUse">
<stop stop-color="#4251DA"/>
<stop offset="1" stop-color="#00ADEF"/>
</linearGradient>
<clipPath id="clip0_577_2058">
<rect width="38.2874" height="37.9355" fill="white" transform="translate(50 42.3838)"/>
</clipPath>
</defs>
</svg>
