<svg width="931" height="579" viewBox="0 0 931 579" fill="none" xmlns="http://www.w3.org/2000/svg">
<path d="M689.989 426.696L608 344.707" stroke="#D4D4D8" stroke-width="2.5"/>
<path d="M423.044 145.041L514 235.997" stroke="#E4E4E7" stroke-width="2.5"/>
<path d="M432.011 426.696L514 344.707" stroke="#E4E4E7" stroke-width="2.5"/>
<path d="M733.645 285.911L778 241.556" stroke="#D4D4D8" stroke-width="2.5"/>
<path d="M841.645 241.911L886 197.556" stroke="#D4D4D8" stroke-width="2.5"/>
<path d="M693 487.352L693 429.352" stroke="#D4D4D8" stroke-width="2.5"/>
<path d="M324.99 226.342L381.559 282.911" stroke="#D4D4D8" stroke-width="2.5"/>
<path d="M738 295.911L782.355 340.266" stroke="#D4D4D8" stroke-width="2.5"/>
<path d="M842 242.352L886.355 286.707" stroke="url(#paint0_linear_577_1986)" stroke-width="2.5"/>
<path d="M931 340.352H780" stroke="#D4D4D8" stroke-width="2.5"/>
<path d="M826 487.352H693" stroke="#D4D4D8" stroke-width="2.5"/>
<path d="M779.744 340.524L779.744 402.352" stroke="url(#paint1_linear_577_1986)" stroke-width="2.5"/>
<path d="M704.086 430.266L765.914 430.266" stroke="url(#paint2_linear_577_1986)" stroke-width="2.5"/>
<path d="M0.284293 353.181L320.284 353.181" stroke="#D4D4D8" stroke-width="2.5"/>
<path d="M322.828 227.18L322.828 165.352" stroke="url(#paint3_linear_577_1986)" stroke-width="2.5"/>
<path d="M320 225.352L188 225.352" stroke="#D4D4D8" stroke-width="2.5"/>
<path d="M841.572 242.18L779.744 242.18" stroke="#E4E4E7" stroke-width="2.5"/>
<path d="M841.572 242.18L779.744 242.18" stroke="#D4D4D8" stroke-width="2.5"/>
<path d="M779.744 242.18L779.744 180.352" stroke="url(#paint4_linear_577_1986)" stroke-width="2.5"/>
<path d="M779.744 242.18L779.744 180.352" stroke="url(#paint5_linear_577_1986)" stroke-width="2.5"/>
<path d="M326.828 352.524L326.828 414.352" stroke="url(#paint6_linear_577_1986)" stroke-width="2.5"/>
<path d="M325.99 354.361L382.559 297.792" stroke="#D4D4D8" stroke-width="2.5"/>
<path d="M682.43 290.352H725.44" stroke="#D4D4D8" stroke-width="2.5"/>
<path d="M400.128 290.352H443.139" stroke="#D4D4D8" stroke-width="2.5"/>
<rect x="371" y="275.352" width="32" height="32" rx="16" fill="#E4E4E7"/>
<rect x="719.065" y="274.352" width="32" height="32" rx="16" fill="#E4E4E7"/>
<rect x="788" y="333.352" width="16.129" height="16.129" rx="8.06452" transform="rotate(90 788 333.352)" fill="#E4E4E7"/>
<rect x="701.129" y="479.352" width="16.129" height="16.129" rx="8.06452" transform="rotate(90 701.129 479.352)" fill="#E4E4E7"/>
<rect x="788" y="232.352" width="16.129" height="16.129" rx="8.06452" transform="rotate(90 788 232.352)" fill="#E4E4E7"/>
<rect x="851.129" y="233.352" width="16.129" height="16.129" rx="8.06452" transform="rotate(90 851.129 233.352)" fill="#E4E4E7"/>
<rect x="331.788" y="217.352" width="16.129" height="16.129" rx="8.06452" transform="rotate(90 331.788 217.352)" fill="#E4E4E7"/>
<rect x="334.786" y="344.352" width="16.129" height="16.129" rx="8.06452" transform="rotate(90 334.786 344.352)" fill="#E4E4E7"/>
<rect x="894.129" y="189.352" width="16.129" height="16.129" rx="8.06452" transform="rotate(90 894.129 189.352)" fill="#D4D4D8"/>
<path d="M562 447.852V347.738" stroke="#E4E4E7" stroke-width="2.5"/>
<path d="M634.66 515.991L571.021 452.352" stroke="#E4E4E7" stroke-width="2.5"/>
<path d="M552.139 452.352L488.5 515.991" stroke="#E4E4E7" stroke-width="2.5"/>
<path d="M86.0001 515.352L486 515.352" stroke="#D4D4D8" stroke-width="2.5"/>
<path d="M488 516.352L488 578.352" stroke="url(#paint7_linear_577_1986)" stroke-width="2.5"/>
<path d="M699.441 518.352L637.613 518.352" stroke="url(#paint8_linear_577_1986)" stroke-width="2.5"/>
<path d="M634.785 515.523L634.785 577.351" stroke="url(#paint9_linear_577_1986)" stroke-width="2.5"/>
<rect x="546.672" y="434.024" width="30.6559" height="30.6559" rx="15.328" fill="#E4E4E7"/>
<rect x="546.672" y="434.024" width="30.6559" height="30.6559" rx="15.328" stroke="#E4E4E7" stroke-width="1.34409"/>
<rect x="642.785" y="508.352" width="16" height="16" rx="8" transform="rotate(90 642.785 508.352)" fill="#E4E4E7"/>
<rect x="495.113" y="509.024" width="14.6559" height="14.6559" rx="7.32796" transform="rotate(90 495.113 509.024)" fill="#E4E4E7"/>
<rect x="495.113" y="509.024" width="14.6559" height="14.6559" rx="7.32796" transform="rotate(90 495.113 509.024)" stroke="#E4E4E7" stroke-width="1.34409"/>
<path d="M562 133.351V233.351" stroke="#D4D4D8" stroke-width="2.5"/>
<path d="M632.661 61.7117L569.021 125.351" stroke="#D4D4D8" stroke-width="2.5"/>
<path d="M552.139 124.991L488.5 61.3512" stroke="#D4D4D8" stroke-width="2.5"/>
<path d="M61.2854 61.738L488.956 61.738" stroke="#D4D4D8" stroke-width="2.5"/>
<path d="M487.785 62.5657V0.73772" stroke="url(#paint10_linear_577_1986)" stroke-width="2.5"/>
<path d="M906 61.3513L632 61.3513" stroke="#D4D4D8" stroke-width="2.5"/>
<path d="M632.785 62.5657L632.785 0.737719" stroke="url(#paint11_linear_577_1986)" stroke-width="2.5"/>
<rect width="32" height="32" rx="16" transform="matrix(1 0 0 -1 544.785 136.738)" fill="#E4E4E7"/>
<rect width="16" height="16" rx="8" transform="matrix(-4.37114e-08 -1 -1 4.37114e-08 640.785 69.738)" fill="#E4E4E7"/>
<rect width="16" height="16" rx="8" transform="matrix(-4.37114e-08 -1 -1 4.37114e-08 495.785 68.738)" fill="#E4E4E7"/>
<path d="M693.958 150.039L608 235.997" stroke="#E4E4E7" stroke-width="2.5"/>
<rect x="710.323" y="130.814" width="24" height="24" rx="12" transform="rotate(90 710.323 130.814)" fill="#D4D4D8"/>
<rect x="704.323" y="418.008" width="24" height="24" rx="12" transform="rotate(90 704.323 418.008)" fill="#E4E4E7"/>
<rect x="438.13" y="419.008" width="24" height="24" rx="12" transform="rotate(90 438.13 419.008)" fill="#D4D4D8"/>
<rect x="432.13" y="128.814" width="24" height="24" rx="12" transform="rotate(90 432.13 128.814)" fill="#D4D4D8"/>
<defs>
<linearGradient id="paint0_linear_577_1986" x1="886.709" y1="286.353" x2="842.354" y2="241.998" gradientUnits="userSpaceOnUse">
<stop stop-color="#E4E4E7" stop-opacity="0"/>
<stop offset="1" stop-color="#E4E4E7"/>
</linearGradient>
<linearGradient id="paint1_linear_577_1986" x1="779.744" y1="341.196" x2="779.744" y2="402.352" gradientUnits="userSpaceOnUse">
<stop stop-color="#E4E4E7"/>
<stop offset="1" stop-color="#E4E4E7" stop-opacity="0"/>
</linearGradient>
<linearGradient id="paint2_linear_577_1986" x1="704.758" y1="430.266" x2="765.914" y2="430.266" gradientUnits="userSpaceOnUse">
<stop stop-color="#E4E4E7"/>
<stop offset="1" stop-color="#E4E4E7" stop-opacity="0"/>
</linearGradient>
<linearGradient id="paint3_linear_577_1986" x1="322.828" y1="226.508" x2="322.828" y2="165.352" gradientUnits="userSpaceOnUse">
<stop stop-color="#E4E4E7"/>
<stop offset="1" stop-color="#E4E4E7" stop-opacity="0"/>
</linearGradient>
<linearGradient id="paint4_linear_577_1986" x1="779.744" y1="241.508" x2="779.744" y2="180.352" gradientUnits="userSpaceOnUse">
<stop stop-color="#E4E4E7"/>
<stop offset="1" stop-color="#E4E4E7" stop-opacity="0"/>
</linearGradient>
<linearGradient id="paint5_linear_577_1986" x1="779.744" y1="241.508" x2="779.744" y2="180.352" gradientUnits="userSpaceOnUse">
<stop stop-color="#E4E4E7"/>
<stop offset="1" stop-color="#E4E4E7" stop-opacity="0"/>
</linearGradient>
<linearGradient id="paint6_linear_577_1986" x1="326.828" y1="353.196" x2="326.828" y2="414.352" gradientUnits="userSpaceOnUse">
<stop stop-color="#E4E4E7"/>
<stop offset="1" stop-color="#E4E4E7" stop-opacity="0"/>
</linearGradient>
<linearGradient id="paint7_linear_577_1986" x1="488" y1="517.025" x2="488" y2="578.352" gradientUnits="userSpaceOnUse">
<stop stop-color="#E4E4E7"/>
<stop offset="1" stop-color="#E4E4E7" stop-opacity="0"/>
</linearGradient>
<linearGradient id="paint8_linear_577_1986" x1="637.613" y1="518.852" x2="699.441" y2="518.852" gradientUnits="userSpaceOnUse">
<stop stop-color="#E4E4E7"/>
<stop offset="1" stop-color="#E4E4E7" stop-opacity="0"/>
</linearGradient>
<linearGradient id="paint9_linear_577_1986" x1="634.785" y1="516.195" x2="634.785" y2="577.351" gradientUnits="userSpaceOnUse">
<stop stop-color="#E4E4E7"/>
<stop offset="1" stop-color="#E4E4E7" stop-opacity="0"/>
</linearGradient>
<linearGradient id="paint10_linear_577_1986" x1="487.785" y1="61.8936" x2="487.785" y2="0.737717" gradientUnits="userSpaceOnUse">
<stop stop-color="#E4E4E7"/>
<stop offset="1" stop-color="#E4E4E7" stop-opacity="0"/>
</linearGradient>
<linearGradient id="paint11_linear_577_1986" x1="632.785" y1="61.8936" x2="632.785" y2="0.737717" gradientUnits="userSpaceOnUse">
<stop stop-color="#E4E4E7"/>
<stop offset="1" stop-color="#E4E4E7" stop-opacity="0"/>
</linearGradient>
</defs>
</svg>
