<svg width="160" height="207" viewBox="0 0 160 207" fill="none" xmlns="http://www.w3.org/2000/svg">
<path opacity="0.05" d="M118.988 6.78532C121.786 -1.79302 133.642 -1.79302 136.441 6.78532L152.851 57.1376C156.463 68.2063 162.548 78.2633 170.626 86.5113C178.703 94.7594 188.549 100.972 199.384 104.656L248.64 121.423C257.035 124.283 257.035 136.396 248.64 139.256L199.359 156.023C188.525 159.713 178.682 165.931 170.61 174.184C162.537 182.436 156.457 192.497 152.851 203.567L136.441 253.894C135.837 255.772 134.669 257.408 133.102 258.567C131.535 259.727 129.649 260.352 127.714 260.352C125.779 260.352 123.894 259.727 122.327 258.567C120.76 257.408 119.591 255.772 118.988 253.894L102.578 203.541C98.9681 192.475 92.8863 182.42 84.8139 174.172C76.7415 165.924 66.9002 159.71 56.0698 156.023L6.7888 139.256C4.95033 138.639 3.34939 137.445 2.21438 135.844C1.07936 134.243 0.468262 132.316 0.468262 130.339C0.468262 128.362 1.07936 126.436 2.21438 124.835C3.34939 123.234 4.95033 122.04 6.7888 121.423L56.0698 104.656C66.9002 100.968 76.7415 94.7544 84.8139 86.5066C92.8863 78.2587 98.9681 68.2035 102.578 57.1376L118.988 6.78532Z" fill="white"/>
<path d="M113.54 121.35C113.831 120.437 115.066 120.437 115.358 121.35L117.067 126.708C117.444 127.885 118.078 128.956 118.919 129.833C119.761 130.711 120.786 131.372 121.915 131.764L127.046 133.548C127.921 133.852 127.921 135.141 127.046 135.445L121.912 137.229C120.784 137.622 119.759 138.284 118.918 139.162C118.077 140.04 117.443 141.11 117.067 142.288L115.358 147.643C115.295 147.843 115.173 148.017 115.01 148.141C114.847 148.264 114.65 148.331 114.449 148.331C114.247 148.331 114.051 148.264 113.888 148.141C113.724 148.017 113.603 147.843 113.54 147.643L111.83 142.286C111.454 141.108 110.821 140.038 109.98 139.161C109.139 138.283 108.114 137.622 106.985 137.229L101.851 135.445C101.66 135.38 101.493 135.253 101.375 135.082C101.257 134.912 101.193 134.707 101.193 134.497C101.193 134.286 101.257 134.081 101.375 133.911C101.493 133.741 101.66 133.614 101.851 133.548L106.985 131.764C108.114 131.372 109.139 130.71 109.98 129.833C110.821 128.955 111.454 127.885 111.83 126.708L113.54 121.35ZM103.301 107.246C103.339 107.127 103.412 107.022 103.51 106.948C103.608 106.875 103.726 106.835 103.847 106.835C103.968 106.835 104.086 106.875 104.184 106.948C104.282 107.022 104.355 107.127 104.393 107.246L105.419 110.46C105.877 111.893 106.953 113.016 108.326 113.495L111.406 114.565C111.521 114.605 111.621 114.681 111.692 114.783C111.762 114.886 111.801 115.009 111.801 115.135C111.801 115.261 111.762 115.384 111.692 115.486C111.621 115.589 111.521 115.665 111.406 115.705L108.326 116.775C107.649 117.011 107.034 117.407 106.529 117.934C106.025 118.461 105.644 119.103 105.419 119.809L104.393 123.023C104.355 123.143 104.282 123.247 104.184 123.321C104.086 123.395 103.968 123.435 103.847 123.435C103.726 123.435 103.608 123.395 103.51 123.321C103.412 123.247 103.339 123.143 103.301 123.023L102.275 119.809C102.05 119.103 101.67 118.461 101.165 117.934C100.66 117.407 100.045 117.011 99.3679 116.775L96.2881 115.705C96.1734 115.665 96.0735 115.589 96.0027 115.486C95.9319 115.384 95.8938 115.261 95.8938 115.135C95.8938 115.009 95.9319 114.886 96.0027 114.783C96.0735 114.681 96.1734 114.605 96.2881 114.565L99.3679 113.495C100.045 113.259 100.66 112.863 101.165 112.336C101.67 111.809 102.05 111.167 102.275 110.46L103.301 107.246ZM122.037 104.345C122.063 104.266 122.112 104.198 122.177 104.15C122.242 104.101 122.32 104.075 122.4 104.075C122.48 104.075 122.558 104.101 122.623 104.15C122.688 104.198 122.737 104.266 122.763 104.345L123.447 106.486C123.752 107.443 124.47 108.192 125.387 108.51L127.439 109.224C127.514 109.251 127.58 109.303 127.626 109.37C127.672 109.438 127.697 109.52 127.697 109.603C127.697 109.686 127.672 109.768 127.626 109.836C127.58 109.903 127.514 109.955 127.439 109.982L125.387 110.696C124.935 110.852 124.525 111.117 124.188 111.469C123.851 111.82 123.597 112.249 123.447 112.72L122.763 114.861C122.737 114.94 122.688 115.008 122.623 115.056C122.558 115.105 122.48 115.131 122.4 115.131C122.32 115.131 122.242 115.105 122.177 115.056C122.112 115.008 122.063 114.94 122.037 114.861L121.353 112.72C121.203 112.249 120.949 111.82 120.612 111.469C120.276 111.117 119.865 110.852 119.413 110.696L117.364 109.982C117.289 109.955 117.223 109.903 117.177 109.836C117.131 109.768 117.106 109.686 117.106 109.603C117.106 109.52 117.131 109.438 117.177 109.37C117.223 109.303 117.289 109.251 117.364 109.224L119.416 108.51C120.333 108.192 121.051 107.443 121.356 106.486L122.037 104.348V104.345Z" fill="white"/>
</svg>
